<?xml version="1.0" encoding="utf-8"?>
<!-- Generator: Adobe Illustrator 28.2.0, SVG Export Plug-In . SVG Version: 6.00 Build 0)  -->
<svg version="1.1" xmlns="http://www.w3.org/2000/svg" xmlns:xlink="http://www.w3.org/1999/xlink" x="0px" y="0px"
	 viewBox="0 0 500 500" style="enable-background:new 0 0 500 500;" xml:space="preserve">
<style type="text/css">
	.st0{fill:#F6F7F1;}
</style>
<g id="BACKGROUND">
	<rect class="st0" width="500" height="500"/>
</g>
<g id="OBJECTS">
	<g>
		<path d="M142.08,273.66c-1.71-1.4-3.62-2.56-5.23-4.09c-1.91-1.78-3.48-3.86-5.22-5.79c-0.41-0.44-0.79-0.89-1.26-1.26
			c-0.12-0.09-0.25-0.18-0.4-0.18c-0.45-0.01-0.6,0.5-0.4,0.84c0.8,1.68,1.88,3.22,2.94,4.74c2.17,3.06,4.93,5.84,8.29,7.56
			C141.99,276.16,143.14,274.53,142.08,273.66z"/>
		<path d="M145.56,276.1c-1.42-0.04-1.5,2.1-0.08,2.17C147,278.46,146.97,276.16,145.56,276.1z"/>
		<path d="M123.96,146.65c1.21,0.74,1.82-0.96,2.5-1.67c2.83-3.3,4.69-7.29,6.24-11.32c1.98-5.11,3.11-10.76,6.59-15.13
			c0.6-0.35,0.09-1.2-0.5-0.87c-0.96,0.68-1.6,1.72-2.31,2.65c-1.3,1.8-2.25,3.81-3.09,5.86c-1.89,4.52-3.45,9.19-6.04,13.38
			c-0.87,1.43-1.78,2.83-2.67,4.26c-0.31,0.48-0.65,0.95-0.99,1.42C123.37,145.68,123.51,146.34,123.96,146.65z"/>
		<path d="M121.11,151.31c0.75,0,1.35-0.71,1.32-1.44c-0.02-0.36-0.18-0.71-0.45-0.96c-0.28-0.25-0.62-0.36-0.99-0.36
			c-0.75,0-1.35,0.71-1.32,1.44c0.02,0.36,0.18,0.71,0.45,0.96C120.39,151.2,120.74,151.31,121.11,151.31z"/>
		<path d="M264.42,104.08c0.02,0,0.03,0,0.05,0.01c0,0-0.01,0-0.01,0C264.45,104.09,264.44,104.09,264.42,104.08
			c-0.01,0-0.02,0-0.02,0c2.72,0.95,5.21,2.47,7.65,3.97c2.87,1.8,5.53,3.92,7.86,6.37c2.42,2.53,3.94,5.6,5.53,8.73
			c0.68,1.34,2.63,0.42,2.06-0.94c-0.46-0.97-0.87-1.97-1.35-2.93c-3.59-6.67-9.97-11.38-16.75-14.51
			c-1.22-0.56-2.47-1.05-3.75-1.45c-0.51-0.12-1.48-0.56-1.64,0.22C263.98,103.81,264.17,104.04,264.42,104.08z"/>
		<path d="M280.38,122.54c-1.41-2.37-2.89-4.74-4.79-6.75c-2.8-2.92-6.15-5.33-9.74-7.18c-0.39-0.19-0.79-0.35-1.17-0.54
			c-0.08-0.06-0.23-0.08-0.36,0.01c-0.58,0.53,0.5,0.88,0.84,1.18c3.55,2.48,7.03,5.23,9.56,8.78c1.43,2.05,2.51,4.31,3.73,6.49
			c0.41,0.73,0.83,1.46,1.23,2.2c0.16,0.29,0.49,0.51,0.81,0.58c0.69,0.18,1.44-0.28,1.6-0.97c0.09-0.36,0.01-0.7-0.16-1.01
			C281.42,124.38,280.91,123.45,280.38,122.54z"/>
		<path d="M206.17,210.81c2.04,3.88,6.16,6.64,10.56,6.88c4.76,0.49,9.78-1.42,12.77-5.2c0.61-0.78,1.14-1.62,1.54-2.52
			c0.58-0.86,1.01-1.85,1.12-2.89c0.33-2.22-0.9-4.53-3.01-5.36c-2.88-1.18-5.14-0.5-7.98,0.19c-1.15,0.22-2.34-0.04-3.35-0.61
			c-3.19-1.94-7.16-3.28-10.42-0.7C204.17,202.95,204.35,207.63,206.17,210.81z M208.77,211.78c0.39-0.32,0.78-0.64,1.21-0.91
			c1.46-0.9,3.11-1.47,4.83-1.52c2.96-0.06,5.85,1.43,7.71,3.7c0.41,0.53,0.81,1.08,1.11,1.68c0.05,0.1,0.11,0.2,0.19,0.26
			c-1.64,0.79-3.43,1.25-5.2,1.32c-2.08,0.07-4.22-0.19-6.08-1.18c-1.51-0.81-2.94-1.82-4.01-3.14
			C208.61,211.94,208.69,211.86,208.77,211.78z"/>
		<path d="M198.5,199.82c2.06,0.55,4.69-0.28,5.7-2.24c0.3-0.71,0.21-1.49,0.06-2.23c-0.26-1.3-0.55-2.6-0.76-3.91
			c0.61,0.75,2.31,3.69,3.32,2.17c0.67-1.02,1.2-2.13,1.65-3.27c0.62-1.47,1.34-2.92,1.78-4.47c0.57-1.98,1.25-4.12,0.71-6.17
			c-0.84-3.07-4.44-4.62-7.31-3.33c-4.01,1.75-5.64,6.53-7.1,10.33c-0.84,2.63-1.84,5.34-1.57,8.14
			C195.13,196.93,196.43,199.17,198.5,199.82z"/>
		<path d="M231.96,196.98c1.66,0.17,3.37-0.71,4.32-2.06c0.68-0.99-0.3-1.98-0.7-2.88c-0.5-1.16-0.73-2.48-0.44-3.73
			c0.82,2.02,3.12,3.82,4.75,1.46c1.03-1.65,1.57-3.59,1.82-5.5c0.21-1.99,0.18-4.11-0.79-5.9c-1.42-2.8-4.77-3.63-7.37-1.91
			c-2.84,1.96-3.95,5.67-4.95,8.82c-0.67,2.48-1.32,5.14-0.66,7.7C228.44,194.89,229.87,196.77,231.96,196.98z"/>
		<path d="M193.34,206.29c1.39,0.46,1.58-1.76,0.14-1.56C192.73,204.88,192.63,206.01,193.34,206.29z"/>
		<path d="M186.18,207.58c0.7,0,1.31-0.54,1.33-1.26c0.02-0.69-0.55-1.33-1.26-1.33c-0.7,0-1.31,0.54-1.33,1.26
			C184.9,206.94,185.47,207.58,186.18,207.58z"/>
		<path d="M196.5,212.84c0-1.28-1.86-1.33-1.94-0.05C194.56,214.07,196.42,214.11,196.5,212.84z"/>
		<path d="M239,201.19c-0.99-0.51-1.65,1.1-0.55,1.38C239.28,202.78,239.75,201.61,239,201.19z"/>
		<path d="M243.94,204.3c0.62,0,1.12-0.54,1.12-1.15c-0.01-0.62-0.53-1.12-1.15-1.12c-0.62,0-1.12,0.54-1.12,1.15
			C242.81,203.81,243.33,204.3,243.94,204.3z"/>
		<path d="M237.34,205.17c-0.64,0-1.18,0.56-1.17,1.2c0.01,0.65,0.55,1.17,1.2,1.17c0.64,0,1.18-0.56,1.17-1.2
			C238.53,205.69,237.98,205.17,237.34,205.17z"/>
		<path d="M167.56,168.79c0.87,0.43,1.21-0.48,1.58-1.07c0.32-0.5,0.62-1.01,0.92-1.52c0.89-1.56,1.93-3.04,3.09-4.41
			c2.36-2.75,5.39-4.76,8.24-6.94c0.73-0.43,0.04-1.35-0.64-0.94c-2.78,1.64-5.47,3.49-7.89,5.67c-1.71,1.62-3.1,3.53-4.3,5.54
			c-0.38,0.61-0.71,1.26-1,1.91C167.26,167.61,166.81,168.33,167.56,168.79z"/>
		<path d="M165.26,174.04c0.9,0.12,1.24-1.22,0.39-1.54C164.51,172.11,164.05,173.88,165.26,174.04z"/>
		<path d="M316.72,193.19c-0.44,0.23-0.58,0.76-0.79,1.18c-0.69,1.61-1.26,3.27-1.85,4.92c-0.67,1.94-1.47,3.83-2.21,5.75
			c-0.24,0.63-0.44,1.28-0.7,1.91c-0.17,0.41,0.05,0.89,0.46,1.05c0.67,0.26,1.04-0.33,1.24-0.87c0.3-0.61,0.61-1.21,0.86-1.84
			c0.75-1.99,1.51-3.97,2.16-5.99c0.46-1.46,0.92-2.94,1.32-4.43c0.09-0.48,0.41-1.06,0.11-1.52
			C317.18,193.17,316.94,193.1,316.72,193.19z"/>
		<path d="M308.89,211.56c0.03,1.22,1.88,1.2,1.88-0.02C310.74,210.32,308.89,210.34,308.89,211.56z"/>
		<path d="M282.95,224.42c0.3-0.49,1.69-2.33,1.32-2.8c-0.21-0.28-0.56-0.12-0.71,0.13c-1.03,1.38-2.06,2.78-3.36,3.92
			c-0.7,0.6-1.38,1.21-2.13,1.75c-0.4,0.29-0.21,0.97,0.28,1.01c0.15,0.02,0.29-0.03,0.41-0.11c0.34-0.24,0.68-0.48,1.02-0.73
			C281.02,226.72,282.09,225.64,282.95,224.42z"/>
		<path d="M285.97,223.94c-0.19,0.06-0.3,0.22-0.41,0.37c-0.32,0.44-0.67,0.86-1.02,1.28c-1.12,1.3-2.42,2.42-3.71,3.54
			c-0.38,0.33-0.76,0.64-1.15,0.95c-0.27,0.21-0.33,0.62-0.11,0.89c0.21,0.28,0.62,0.32,0.89,0.12c0.53-0.4,1.06-0.81,1.59-1.21
			c1.48-1.11,2.73-2.5,3.76-4.03c0.28-0.49,0.76-1,0.72-1.59C286.47,224.02,286.21,223.87,285.97,223.94z"/>
		<path d="M95.71,266.05c0.24-0.28,0.55-0.54,0.61-0.92c0.05-0.37-0.31-0.7-0.67-0.62c-0.25,0.05-0.47,0.23-0.66,0.38
			c-0.59,0.46-1.15,0.95-1.73,1.42c-1.12,0.92-2.27,1.81-3.4,2.71c-1.08,0.86-2.11,1.77-3.22,2.59c-0.3,0.22-0.35,0.67-0.12,0.96
			c0.23,0.3,0.66,0.34,0.96,0.12c0.84-0.64,1.71-1.25,2.57-1.86C92.05,269.39,94,267.83,95.71,266.05z"/>
		<path d="M97.5,267.76c-0.16,0-0.28,0.09-0.4,0.19c-0.34,0.31-0.65,0.65-0.99,0.96c-1.79,1.73-3.7,3.32-5.45,5.09
			c-0.31,0.3-0.3,0.82,0.01,1.12c0.31,0.31,0.81,0.3,1.12-0.01c0.41-0.4,0.83-0.81,1.24-1.21c0.87-0.88,1.71-1.78,2.54-2.7
			c0.8-0.95,1.73-1.86,2.31-2.96C97.92,268,97.76,267.76,97.5,267.76z"/>
		<path d="M133.41,242.55c-0.53,0.27-0.87,0.82-1.26,1.25c-0.47,0.58-0.92,1.17-1.37,1.76c-0.9,1.15-1.61,2.43-2.39,3.67
			c-0.26,0.41-0.06,0.99,0.35,1.22c0.53,0.31,1.11-0.04,1.35-0.55c1.14-1.62,2.18-3.3,3.17-5.02c0.27-0.46,0.56-0.92,0.8-1.41
			c0.16-0.14,0.23-0.36,0.17-0.57C134.14,242.55,133.74,242.41,133.41,242.55z"/>
		<path d="M124.6,254.5c0.05,1.04,1.56,1.02,1.58-0.02C126.14,253.43,124.62,253.45,124.6,254.5z"/>
		<path d="M146.68,329.34c-0.27,0.18-0.39,0.51-0.49,0.8c-0.34,0.95-0.59,1.95-0.83,2.93c-0.54,2.31-0.92,4.65-1.23,7
			c-0.11,0.78-0.19,1.57-0.2,2.36c-0.01,0.45,0.37,0.84,0.81,0.9c0.43,0.05,0.91-0.24,1-0.68c0.27-1.3,0.41-2.63,0.57-3.95
			c0.18-1.53,0.35-3.06,0.59-4.58c0.18-1.16,0.37-2.32,0.53-3.48c0.04-0.35,0.14-0.71,0.03-1.05
			C147.34,329.3,146.94,329.17,146.68,329.34z"/>
		<path d="M143.41,348.77c0.51,0.86,1.82,0.18,1.67-0.72C144.78,346.5,142.51,347.48,143.41,348.77z"/>
		<path d="M261.45,386c-0.52-4.56-1.39-9.07-2.19-13.58c-0.18-0.67-0.1-1.89-1.1-1.79c-0.44,0.06-0.76,0.52-0.64,0.95
			c0.72,4.89,1.22,9.83,2.27,14.66C259.97,387.33,261.59,387.08,261.45,386z"/>
		<path d="M261.06,390.73c-0.69,0-1.26,0.6-1.26,1.29c0.01,0.7,0.6,1.26,1.29,1.26c0.69,0,1.26-0.6,1.26-1.29
			C262.34,391.29,261.76,390.73,261.06,390.73z"/>
		<path d="M173.44,70.1c0.56-0.42,1.11-0.84,1.67-1.25c1.71-1.2,3.39-2.44,5.02-3.75c2.19-1.75,4.41-3.46,6.65-5.15
			c0.05,2.87,0.11,5.74,0.11,8.61c-0.03,2.31,0.16,4.61,0.35,6.91c0.11,1.51,2.28,1.42,2.28-0.07c-0.01-3.41-0.07-6.81-0.08-10.22
			c-0.04-2.04-0.09-4.08-0.12-6.12c1.56,1.24,3.13,2.47,4.7,3.7c2.68,2.13,5.25,4.41,8.06,6.37c1.13,0.78,2.28-0.81,1.23-1.66
			c-3.35-3.02-6.87-5.83-10.52-8.47c-0.78-0.59-1.57-1.17-2.35-1.76c2.36-1.73,4.74-3.44,7.13-5.12c1.44-1.03,2.83-2.13,4.2-3.26
			c0.66-0.55,1.32-1.11,1.94-1.71c0.52-0.54,1.16-1.03,1.48-1.72c0.21-0.37-0.26-0.79-0.62-0.61c-1.08,0.59-2.02,1.45-3.03,2.17
			c-2.55,1.95-5.22,3.73-7.89,5.5c-1.48,0.99-2.95,1.99-4.41,3c-0.07-4-0.13-7.99-0.16-11.99c-0.03-1.85,0.05-3.72-0.14-5.56
			c0,0,0,0,0,0c-0.07-0.49-0.64-0.74-1.06-0.49c-0.4,0.22-0.52,0.71-0.6,1.13c-0.62,4.58-0.55,9.22-0.59,13.84c0,0.67,0,1.34,0,2.01
			c-0.78-0.58-1.55-1.16-2.33-1.74c-2.84-2.08-5.45-4.44-8.23-6.6c-1.01-0.78-2-1.57-3.04-2.29c-0.27-0.18-0.61-0.42-0.94-0.22
			c-0.85,0.66,0.87,1.94,1.4,2.4c4.11,3.33,7.82,6.98,12.11,10.19c0.35,0.28,0.7,0.56,1.05,0.84c0,0.08,0,0.16,0,0.24
			c-3.6,2.55-7.15,5.18-10.64,7.89c-1.36,1.07-2.68,2.17-4.06,3.21c-0.49,0.37-0.55,1.11-0.18,1.57
			C172.26,70.41,172.96,70.47,173.44,70.1z"/>
		<path d="M36.78,125.37c0.86,0.67,2.02,0.76,3.05,1.01c2.15,0.41,4.29,0.84,6.41,1.4c2.22,0.58,4.49,1.14,6.44,2.39
			c2.98,1.84,4.67,5.04,5.87,8.23c1.26,3.5,2.02,7.15,2.53,10.83c0.26,1.96,0.48,3.93,0.86,5.87c0.15,1.16,1.69,1.59,2.45,0.8
			c0.39-0.07,0.75-0.3,0.94-0.68c0.34-0.63,0.21-1.38,0.29-2.07c0.08-1.81,0.16-3.62,0.45-5.41c0.79-4.53,2.71-9,6.21-12.09
			c2.76-2.56,6.16-4.21,9.61-5.62c2.8-1.17,5.62-2.33,8.56-3.09c0.41-0.1,0.83-0.15,1.25-0.2c0.79-0.13,1.28-1.01,0.94-1.74
			c-0.21-0.48-0.73-0.79-1.25-0.74c-1.87-0.13-3.71-0.52-5.56-0.79c-6.1-1.11-13.2-2.98-17.02-8.31c-1.61-2.32-2.25-5.11-2.87-7.82
			c-0.71-2.76-0.9-5.62-1.64-8.37c-0.11-0.33-0.21-0.69-0.46-0.94c-0.06-0.05-0.13-0.09-0.2-0.12c-0.28-0.28-0.74-0.24-0.99,0.07
			c-0.28,0.38-0.24,0.9-0.29,1.35c-0.06,1.46-0.16,2.91-0.33,4.36c-0.46,3.32-0.55,6.79-1.93,9.89c-1.33,3.12-3.97,4.92-7.08,6.06
			c-3.48,1.25-7.09,2.16-10.76,2.6c-0.87,0.12-1.74,0.23-2.61,0.34c-0.89,0.14-1.87,0.07-2.68,0.53
			C36.15,123.59,36.07,124.76,36.78,125.37z M60.99,117.1c1.91-2.78,2.52-6.07,2.78-9.37c0.15,0.77,0.31,1.54,0.48,2.31
			c0.63,3.12,1.83,6.19,4.07,8.51c4.37,4.5,10.69,6.41,16.73,7.42c-6.17,2.22-12.84,4.36-17.1,9.65c-2.13,2.69-3.58,5.88-4.41,9.22
			c-0.83-4.22-2.09-8.35-4.31-12.04c-3.49-5.72-8.95-6.85-15.02-8.25C49.72,123.69,57.67,121.96,60.99,117.1z"/>
		<path d="M111.75,89.69c3.65,3.29,10.43,1.38,11.25-3.63c0.99-5.05-3.11-8.76-8.07-7.54C110.19,79.66,107.31,86.46,111.75,89.69z
			 M118.94,80.49c-0.1,0.91,1.1,1.02,1.53,1.64c1.06,1.33,0.67,3.32-0.09,4.7c-0.81,1.34-2.32,2.12-3.84,2.3
			C107.59,89.07,111.37,78.15,118.94,80.49z"/>
		<path d="M126.15,300.28c-0.24-1.79-1.4-3.89-3.38-4.06c-2.26-1.47-5.63-0.17-7.07,1.91c-2.28,3.14-0.07,8.11,3.75,8.63
			C123.2,307.38,126.78,304.12,126.15,300.28z M116.82,300.39c0.36-2.14,2.93-3.56,4.96-2.93c0.07,0.44,0.43,0.73,0.83,0.86
			c0.3,0.13,0.51,0.39,0.7,0.65c1.48,2.38-0.35,5.64-3.19,5.5C118.1,304.43,116.55,302.32,116.82,300.39z"/>
		<path d="M43.37,368.22c-0.55,1.36-3.7,5.54-0.9,5.95c1.57-0.28,3.73-2.72,5.1-3.74c4.24-3.63,8.39-7.39,12.11-11.56
			c2.93,5.31,5.48,10.83,8.88,15.88c1.05,1.62,2.16,3.2,3.4,4.69c0.56,0.59,1.01,1.43,1.82,1.69c4.7,1.2-3.68-23.15-4.37-25.59
			c2.71-1.11,5.62-1.67,8.38-2.66c4.76-1.69,9.64-3.15,14.18-5.38c0.98-0.38,1.27-1.61,0.36-2.24c-1.25-0.72-2.81-0.62-4.2-0.77
			c-6.61-0.37-13.22-0.04-19.83,0.18c1.38-4.61,2.68-9.27,3.25-14.06c0.05-1.27,0.56-2.67,0.09-3.89c-0.54-0.84-1.59-0.34-2.06,0.31
			c-4.07,5.09-6.68,11.15-10,16.72c-1.62-3.73-4.02-7.01-6.37-10.31c-0.99-1.43-2.07-3.1-3.13-4.54c-0.23-0.31-0.5-0.61-0.86-0.75
			c-1.04-0.39-1.6,0.79-1.43,1.67c0.62,5.83,2.91,11.32,4.69,16.87c-5.9,0.79-11.52,2.87-17.01,5.1c-1.34,0.55-2.66,1.13-4,1.7
			c-1.09,0.36-2.92,1.35-1.77,2.65c1.08,0.82,4.05,0.02,5.47,0c5.56-0.67,11.17-1,16.7-1.91C48.97,358.85,46,363.44,43.37,368.22z
			 M34.74,354.32c26.68-12.34,19.95,3.07,14.76-23.29c2.26,3.28,4.71,6.47,6.79,9.88c0.73,1.22,1.48,2.43,2.08,3.71
			c0.26,0.66,0.7,1.46,1.46,0.79c0.61,0.13,0.9-0.45,1.11-0.92c0.46-0.92,0.92-1.84,1.43-2.73c2.43-4.31,4.62-8.65,7.58-12.66
			c-0.63,4.53-1.71,9.06-3.06,13.45c-1.17,3.35-0.84,4.54,2.95,3.88c6.59-0.42,13.23-0.46,19.81,0.09
			c-5.92,2.38-11.74,4.73-17.92,6.45c-5.31,1.3-4.51,2.01-3.02,6.63c1.95,6.3,4.31,12.59,4.97,19.19c-0.09-0.13-0.17-0.26-0.26-0.38
			c-4.51-6.14-7.92-12.99-11.64-19.62c-0.66-1.24-1.65-3.05-3.05-1.43c-1.17,1.11-2.27,2.3-3.4,3.46c-3.28,3.39-6.85,6.5-10.5,9.47
			c1.41-2.78,2.99-5.47,4.6-8.14c1.49-2.52,3.15-4.95,4.53-7.53c0.94-1.73-0.16-2.83-1.93-2.04
			C46.35,353.61,40.5,353.72,34.74,354.32z"/>
		<path d="M469.16,70.98c-6-4.47-12.83-7.65-19.26-11.44c5.04-5.62,11.53-9.69,16.99-14.86c0.76-0.93,2.39-1.79,2.56-3
			c0.01-1.17-1.36-1.37-2.23-1.04c-7.99,2.79-15.26,7.31-22.68,11.33c0.8-6.1,1.26-12.3,0.88-18.45c0.08-1.71-1.31-2.74-2.16-0.84
			c-2.47,6.5-4.22,13.28-5.67,20.09c-2.49-4.84-5.32-9.52-8.5-13.95c-1.28-1.5-3.28-4.53-5.05-5.21c-1.53-0.16-1.25,1.79-1.02,2.76
			c1.81,6.98,5.26,13.45,7.92,20.16c-9.03,1.68-17.69,4.73-26.45,7.42c-2.01,0.43-2.23,2.69,0.01,2.68
			c5.03-0.05,9.99-1.03,14.94-1.86c2.9-0.52,5.83-0.95,8.69-1.65c-2.42,3.84-4.45,7.91-6.4,12c-1.45,3.11-3.1,6.15-4.29,9.36
			c-0.33,0.87-0.02,2.11,1.06,2.17c1.84-0.14,3.92-3.15,5.23-4.43c4.19-4.65,8.29-9.33,11.65-14.66c2,8.01,5.42,15.71,10.12,22.51
			c0.43,0.6,1.04,1.27,1.83,1.1c2.07-0.64,1.02-6.45,0.85-8.19c-0.86-5.1-2.25-10.12-3.91-15.01c7.6,3,15.52,5.35,23.71,5.94
			C471.08,74.59,471.56,72.66,469.16,70.98z M449.83,67.92c-1.79-0.61-3.57-1.24-5.34-1.9c-0.85-0.38-2.36-0.94-2.68,0.35
			c-0.02,1.22,0.75,2.34,1.06,3.5c1.78,6.11,4.12,12.39,3.93,18.86c-0.16-0.25-0.31-0.51-0.47-0.77c-2.92-4.77-5.41-9.83-7.19-15.14
			c-0.57-1.66-1.05-3.35-1.54-5.05c-0.46-2.1-1.71-4.43-3.41-1.6c-3.96,6.13-8.77,11.62-13.8,16.88c3.16-7.29,6.96-14.3,10.91-21.15
			c0.17-1.3-1.16-1.53-2.1-1.06c-1.01,0.34-2.06,0.48-3.09,0.72c-5.04,1.03-10.1,1.96-15.19,2.65c5.44-1.81,10.87-3.67,16.46-4.97
			c1.3-0.46,4.66-0.71,5.22-1.94c0.21-0.6-0.23-1.12-0.49-1.62c-0.3-0.6-0.56-1.21-0.84-1.81c-1.59-3.54-3.03-7.14-4.52-10.73
			c-0.96-2.44-2.01-4.89-2.43-7.5c3.02,3.27,5.39,7.06,7.72,10.83c1.83,2.89,3.46,5.89,5.27,8.78c0.44,0.84,1.72,0.36,1.29-0.54
			c0.46-0.32,0.4-0.94,0.54-1.42c0.27-1.23,0.52-2.45,0.79-3.68c1.07-4.78,2.32-9.54,3.85-14.24c-0.1,4.34-0.46,8.67-0.94,12.98
			c-0.04,1.56-1.27,5.07-0.35,6.2c1.08,1.09,2.46-0.25,3.45-0.83c0.76-0.5,1.54-0.98,2.33-1.44c5.7-3.23,11.52-6.42,17.55-9
			c-4.38,4.06-9.16,7.63-13.67,11.55c-1.48,1.5-3.71,2.69-4.32,4.81c-0.27,1.5,3.28,2.97,4.38,3.82c4.88,2.94,10.14,5.22,14.82,8.5
			C461.15,71.16,455.5,69.87,449.83,67.92z"/>
		<path d="M357.41,42.43c3.14,1.62,7.13-0.93,7.42-4.35c0.16-1.45-0.45-3.08-1.66-3.93c-1.27-0.75-3.11-0.62-4.46-0.13
			C354.94,35.21,353.55,40.43,357.41,42.43z M359.46,35.45c0.47,0.82,1.5,0.37,2.24,0.64c0.98,0.76,0.72,2.28,0.07,3.18
			c-0.51,0.64-1.33,0.97-2.13,1C356.44,40.14,357.32,36.54,359.46,35.45z"/>
		<path d="M464.54,152.55c-0.41-0.26-0.9-0.23-1.37-0.25c-0.93-0.02-1.86-0.03-2.78-0.07c-2.73-0.14-5.47-0.21-8.18-0.57
			c-1.66-0.24-3.37-0.41-4.94-1.06c-4.24-1.74-4.67-7.46-5.09-11.43c-0.14-1.76-0.29-3.52-0.43-5.27c-0.19-1.89-0.21-3.82-0.64-5.68
			c-0.22-0.95-1.58-1.14-2-0.25c-0.17,0.38-0.15,0.82-0.16,1.24c-0.03,0.93-0.06,1.86-0.09,2.79c-0.29,1.65-0.52,3.3-0.67,4.97
			c-0.06,0.63-0.09,1.27-0.15,1.9c-0.03,0.29-0.07,0.59-0.1,0.88c-0.43,2.78-0.96,5.79-3.07,7.82c-2.23,2.19-5.39,2.92-8.39,3.34
			c-3.09,0.38-6.19,0.63-9.29,0.93c-0.66,0.03-1.39,0.19-1.71,0.83c-0.36,0.66,0.09,1.51,0.81,1.65c3.53,0.3,7.07,0.78,10.51,1.62
			c3.38,0.82,6.64,2.91,8.01,6.21c1.87,4.9,1.94,10.24,2.15,15.41c0.04,1.33,0.08,2.66,0.17,3.99c0.03,0.62,0.08,1.39,0.77,1.61
			c0.5,0.17,1.05-0.1,1.24-0.61c0.11-0.32,0.12-0.66,0.18-1c0.13-0.95,0.25-1.9,0.37-2.84c0.31-2.36,0.49-4.75,1.09-7.06
			c0.96-3.07,2.18-6.22,4.41-8.6c4.49-4.01,10.5-5.58,16.08-7.49c1-0.35,2.01-0.68,3.02-0.96
			C465.19,154.32,465.34,153.03,464.54,152.55z M443.56,162.03c-2.28,2.68-3.79,6.19-4.64,9.59c-0.82-10.42-3.11-16.11-14.15-18.23
			c4.29-0.36,8.9-1.35,11.94-4.63c2.06-2.25,2.68-5.34,2.84-8.3c0.5,3.92,1.19,8.27,4.28,11.05c2.22,1.93,5.24,2.34,8.06,2.65
			c2.08,0.23,4.17,0.33,6.26,0.4C453.07,156.29,447.39,158.11,443.56,162.03z"/>
		<path d="M467.31,411.49c-1.77,0.12-3.55,0.11-5.33,0.16c-2.45,0.08-4.88,0.24-7.31,0.46c0.31-0.28,0.63-0.56,0.94-0.83
			c3.2-2.82,6.34-5.7,9.41-8.66c1.02-0.97-0.34-2.46-1.4-1.59c-0.68,0.6-1.38,1.17-2.08,1.74c-2.99,2.65-5.92,5.35-8.8,8.09
			c0.02-0.9,0.04-1.81,0.05-2.71c0.07-3.99,0.22-8.03,0.34-11.99c-0.13-0.26-0.44-0.38-0.71-0.29c-0.51,0.22-0.49,0.88-0.61,1.35
			c-0.72,4.77-1.02,9.61-1.3,14.42c-0.68-0.56-1.36-1.12-2.05-1.67c-2.34-1.79-4.75-3.49-7-5.4c-0.43-0.35-0.86-0.7-1.31-1.04
			c-0.39-0.26-0.78-0.72-1.3-0.66c-1.17,0.45,0.56,2.07,1.03,2.6c2.66,2.63,5.63,4.9,8.47,7.32c-2.82,0.36-5.64,0.8-8.45,1.28
			c-1.18,0.22-2.35,0.46-3.52,0.7c-0.32,0.06-0.85,0.1-1,0.45c-0.1,0.23-0.03,0.5,0.21,0.61c0.35,0.15,0.76,0.04,1.13,0.04
			c1.25-0.09,2.49-0.17,3.74-0.27c2.69-0.2,5.38-0.45,8.07-0.67c-1.91,1.89-3.81,3.8-5.68,5.74c-2.36,2.3-4.73,4.69-7.16,6.94
			c-0.2,0.1-0.39,0.24-0.37,0.52c0.24,0.96,1.18,0.12,1.62-0.22c0.93-0.73,1.84-1.49,2.75-2.25c3.65-3.04,7.08-6.32,10.56-9.55
			c-0.39,5.48-1.07,10.94-1.14,16.44c-0.03,0.95-0.08,1.9-0.13,2.84c-0.03,0.59,0.43,1.12,1.02,1.16c0.59,0.04,1.12-0.43,1.16-1.02
			c0.09-1.43,0.2-2.86,0.34-4.29c0.35-4.92,0.75-9.83,1.01-14.75c4.5,4.11,8.8,8.43,13.43,12.39c0.97,0.81,2.17-0.59,1.26-1.43
			c-0.67-0.64-1.22-1.26-1.91-2c-1.6-1.65-3.29-3.21-4.94-4.82c-2.13-2.05-4.27-4.08-6.47-6.05c0.91-0.05,1.82-0.09,2.73-0.12
			c3.64-0.02,7.26-0.26,10.88-0.52C469.09,413.75,468.9,411.42,467.31,411.49z"/>
		<path d="M329.61,419.53c-2.78-2.54-7.19-1.88-10.01,0.33c-2.44,1.9-2.89,5.44-1.9,8.22c0.66,1.92,2.31,3.4,4.21,4.03
			c2.74,1.05,5.91,0.06,7.87-2.03c1.31-1.43,1.94-3.39,2.02-5.3c0.07-1.35-0.1-2.83-1.03-3.88
			C330.33,420.49,330.07,419.93,329.61,419.53z M324.18,430.39c-3.78-0.13-5.66-3.88-4.3-7.22c1.21-2.66,5.36-3.8,7.89-2.48
			c-0.04,0.31,0.05,0.63,0.27,0.86c0.4,0.42,0.83,0.84,1.09,1.37C329.98,426.34,327.97,430.25,324.18,430.39z"/>
		<path d="M461.72,233.63c-2.56-0.14-5.16,1.25-6.41,3.5c-0.88,1.6-1.21,3.56-0.68,5.33c0.84,2.59,3.47,4.41,6.15,4.59
			c4.55,0.22,8.81-4.15,7.39-8.75c-0.44-1.75-1.67-3.33-3.29-4.14C463.91,233.71,462.8,233.49,461.72,233.63z M465.8,240.05
			c0.18,2.46-2.22,4.45-4.53,4.65c-1.72,0.08-3.43-0.96-4.25-2.44c-1.05-2.28,0.3-5.14,2.51-6.16c0.26,0.12,0.55,0.12,0.82,0.06
			c0.94-0.14,1.94-0.22,2.84,0.13C464.74,236.84,465.67,238.47,465.8,240.05z"/>
		<path d="M402.29,141.44c0.42,0.07,0.84-0.2,0.97-0.6c0.29-0.94,0.47-1.9,0.69-2.86c0.49-2.26,0.9-4.55,1.11-6.85
			c0.08-1.02,0.15-2.03,0.16-3.05c-0.02-0.36,0.05-0.78-0.21-1.07c-0.29-0.31-0.79-0.16-0.96,0.2c-0.32,0.7-0.34,1.5-0.48,2.24
			c-0.15,0.99-0.29,1.98-0.45,2.97c-0.33,2.02-0.72,4.02-1.16,6.02c-0.14,0.67-0.3,1.34-0.4,2.01
			C401.5,140.91,401.82,141.36,402.29,141.44z"/>
		<path d="M400.88,147.27c0.68,0,1.27-0.53,1.29-1.22c0.02-0.67-0.54-1.29-1.22-1.29s-1.27,0.53-1.29,1.22
			C399.64,146.65,400.2,147.27,400.88,147.27z"/>
		<path d="M351.26,65.7c0.85,0.18,1.15-1.07,0.31-1.29c-3.58-1.02-7.25-1.63-10.95-2.02c-0.32,0-0.69-0.12-0.99,0.05
			c-0.47,0.34-0.13,0.9,0.35,0.99c1.29,0.35,2.63,0.53,3.94,0.77C346.38,64.63,348.83,65.14,351.26,65.7z"/>
		<path d="M353.56,69.07c-3.47-0.97-7.03-1.59-10.54-2.44c-0.43-0.03-1.97-0.7-1.7,0.22c0.06,0.16,0.28,0.25,0.44,0.32
			c0.65,0.28,1.34,0.46,2.01,0.69c3.1,1.05,6.28,1.83,9.45,2.62C354.17,70.68,354.49,69.33,353.56,69.07z"/>
		<path d="M120.61,370.39c-0.4,0.98-0.66,2.02-0.96,3.04c-0.41,1.41-0.72,2.85-0.98,4.29c-0.09,0.94-0.94,2.87,0.45,3.14
			c1.21,0.11,1.15-1.45,1.33-2.28c0.22-1.42,0.45-2.84,0.69-4.26c0.19-1.11,0.4-2.22,0.59-3.34c0.04-0.34,0.17-0.71,0.02-1.03
			C121.33,369.39,120.78,369.9,120.61,370.39z"/>
		<path d="M118.07,384.44c0.27,1.05,1.83,0.94,1.98-0.12C120.19,382.71,117.73,382.86,118.07,384.44z"/>
		<path d="M98.19,367.07c0.43,0.1,0.89-0.15,1.04-0.57c0.34-0.77,0.54-1.6,0.77-2.41c0.54-1.78,1.21-3.52,1.87-5.25
			c0.42-1.09,0.83-2.18,1.18-3.3c0.09-0.52,0.61-1.32-0.08-1.63c-0.3-0.11-0.6,0.06-0.71,0.32c0.01-0.02,0.01-0.04,0.02-0.05
			c0.01-0.02,0.02-0.04,0.04-0.06c-1.86,2.9-3.05,6.18-4.18,9.42C97.92,364.46,96.79,366.74,98.19,367.07z"/>
		<path d="M98.07,368.95c-0.95-0.83-2.18,0.52-1.29,1.39C97.72,371.17,98.95,369.82,98.07,368.95z"/>
		<path d="M195.74,319.77c2.5,1.93,4.76,4.21,6.87,6.59c1.2,1.41,2.38,2.84,3.43,4.37c0.13,0.21,0.29,0.39,0.53,0.46
			c0.66,0.22,1.31-0.59,0.93-1.18c-0.88-1.35-1.83-2.65-2.92-3.84c-2.44-2.59-5-5.16-8.09-6.96c-0.26-0.12-0.57-0.33-0.86-0.18
			C195.31,319.23,195.45,319.64,195.74,319.77z"/>
		<path d="M204.32,332.88c-2.16-3.21-4.38-6.61-7.62-8.84c-0.12-0.08-0.26-0.17-0.41-0.19c-0.31-0.03-0.56,0.26-0.44,0.56
			c0.08,0.2,0.29,0.36,0.44,0.51c0.51,0.48,0.99,1,1.46,1.52c1.41,1.64,2.46,3.36,3.65,5.19c0.77,1.19,1.57,2.35,2.32,3.55
			c0.12,0.2,0.29,0.35,0.52,0.41c0.72,0.24,1.41-0.63,1.01-1.28C204.95,333.83,204.64,333.35,204.32,332.88z"/>
		<path d="M357.9,366.8c1.22-0.7,2.43-1.43,3.6-2.22c5.25-3.94,9.76-9.63,11.17-16.15c0.13-0.66,0.23-1.33,0.31-2
			c0.01-0.39,0.19-0.94-0.18-1.21c-0.64-0.29-0.77,0.64-0.92,1.06c-0.15,0.49-0.28,0.98-0.43,1.47c-1.42,5.25-4.66,9.81-8.68,13.42
			c-1.06,0.98-2.23,1.82-3.4,2.65c-0.62,0.44-1.25,0.86-1.91,1.25c-0.55,0.23-1.03,0.73-0.72,1.35
			C356.95,366.83,357.49,367.02,357.9,366.8z"/>
		<path d="M365.49,353.34c0.92-1.34,1.66-2.81,2.16-4.35c0.2-0.7,0.52-1.41,0.5-2.14c-0.05-0.25-0.32-0.39-0.56-0.31
			c-0.53,0.25-0.68,0.94-0.98,1.41c-1.65,3.48-4.18,6.47-7.23,8.82c-1.95,1.43-3.95,2.82-5.99,4.14c-0.79,0.49-0.49,1.8,0.41,1.93
			c0.27,0.05,0.55-0.02,0.79-0.17c1.31-0.83,2.64-1.65,3.94-2.5C361.27,358.35,363.67,356.07,365.49,353.34z"/>
		<path d="M432.05,347.08c-0.13,0.11-0.19,0.26-0.19,0.41c-0.13,0.46-0.23,0.93-0.34,1.39c-0.37,1.57-0.7,3.16-1.02,4.74
			c-0.49,2.57-1.11,5.11-1.57,7.68c-0.13,0.84-0.28,1.67-0.47,2.49c-0.11,0.52,0.28,1.04,0.79,1.13c1.05,0.15,1.16-0.9,1.33-1.66
			c1.03-3.51,1.71-7.12,2.11-10.76c0.15-1.27,0.25-2.54,0.32-3.82c0.01-0.42,0.05-0.84-0.03-1.26
			C432.94,346.99,432.38,346.79,432.05,347.08z"/>
		<path d="M428.43,367.86c-1.18-0.31-1.6,1.5-0.4,1.74C429.12,369.78,429.48,368.18,428.43,367.86z"/>
		<path d="M440.05,336.02c0.1-4.79-0.17-8.06,0.43-11.68c0.25-0.85,0.53-1.72,0.83-2.58c0.73-1.99,1.6-3.94,2.81-5.68
			c3.99-5.34,8.69-10.91,8.96-17.89c0.37-5.89-1.78-11.5-4.19-16.76c-2.8-6.39-7-12.05-11.9-16.99c-1.61-1.62-3.29-3.2-5.18-4.5
			c-1.08-0.76-2.23-1.33-3.4-1.63c0.19-0.29,0.28-0.67,0.33-1.01c0.16-0.81,0.23-1.64,0.29-2.47c0.19-2.42,0.09-4.86,0.06-7.28
			c-0.21-6.15-0.78-12.4,0.62-18.46c1.79-7.95,6.2-15.1,7.33-23.23c0.27-1.69,0.39-3.56,0.63-5.28c0.04-0.61,0.42-1.39-0.02-1.91
			c0.02-0.14-0.04-0.28-0.15-0.37c-0.2-0.16-0.45-0.23-0.7-0.3c-1.33-0.35-2.69-0.59-4.04-0.83c-1.39-0.24-2.8-0.45-4.2-0.63
			c-6.76-0.81-13.52-1.45-20.27-2.48c-6.86-1.12-13.72-2.22-20.59-3.33c-0.2-0.03-0.4-0.06-0.6-0.09c2.49-2.23,5.59-7.5,6.58-9.21
			c4.91-8.81,9.28-17.95,12.49-27.52c1.41-4.15,2.52-8.41,3.36-12.72c2.38-11.56,2.99-23.59,0.5-35.18
			c-1.31-5.72-3.71-11.14-6.46-16.3c-3.81-7.1-9.24-13.29-15.87-17.87c-7.78-5.25-16.46-9.35-25.57-11.66
			c-5.66-1.33-11.43-2.19-17.19-2.91c-14.41-1.6-28.95-1.42-43.39-0.46c-5.73,0.5-11.5,0.95-17.11,2.23
			c-4.2,0.99-8.65,3.22-10.5,7.34c-2.03,4.75,1.83,8.47,6.07,9.87c2.58,0.86,5.26,1.35,7.97,1.65c-1.07,0.54-2.06,1.25-2.89,2.13
			c-1.69,1.96-2.58,4.63-2.42,7.21c0.4,5.05,4.67,8.3,9.33,9.46c-0.04,0.05-0.07,0.1-0.1,0.15c-0.88,1.18-1.18,2.68-1.04,4.13
			c0.36,3.01,2.58,5.72,5.3,6.96c5.44,2.13,11.86-0.2,16.97-2.36c0.9-0.4,1.78-0.83,2.65-1.28c0.75-0.38,1.5-0.77,2.22-1.22
			c0,0,0.01,0,0.01-0.01c0.22,0.2,0.46,0.38,0.72,0.55c2.63,1.69,6.06,1.09,8.62-0.44c1.65-0.97,3.1-2.24,4.42-3.63
			c2.31-2.4,4.39-5,6.58-7.5c1.26-1.4,2.62-2.73,4.07-3.94c3.51,0.42,6.99,1.24,10.14,2.86c9.2,4.89,15.49,14.64,16.56,24.96
			c0.54,5.38-0.09,10.8-1.02,16.11c-1.91,11.18-5.61,21.94-9.48,32.57c-2.08,5.44-4.16,10.88-6.29,16.3
			c-0.57,1.43-1.15,2.85-1.69,4.29c-0.14,0.43-0.41,0.9-0.58,1.34c-0.87-0.1-1.73-0.17-2.6-0.14c-0.85,0.08-1.53,0.69-2.08,1.3
			c-1.79,2.05-3.05,4.51-4.42,6.84c-1.79,3.06-3.46,6.13-4.91,9.39c-2,4.44-3.09,9.27-3.41,14.13c-0.26,3.25,0.09,6.5-0.09,9.74
			c-0.45,3.07-1.98,5.96-4.07,8.22c-1.57,1.64-3.48,2.9-5.42,4.08c-3.12,1.84-6.41,3.37-9.56,5.15c-2.57,1.47-5.03,3.1-7.42,4.84
			c-5.8,3.38-10.56,8.48-14.14,14.12c-4.65,7.35-7.02,15.81-9.26,24.13c-2.9,11.16-12.05,18.34-22.06,23.13
			c-2.57,1.15-5.25,2.03-7.94,2.88c-1.14,0.36-2.28,0.72-3.42,1.11c-0.29,0.06-0.58,0.17-0.83,0.32c-0.92-2.68-1.86-5.35-2.82-8.01
			c-3.93-10.99-8.4-21.8-14.34-31.88c-1.05-1.86-2.18-3.68-3.49-5.36c-0.07-0.08-0.13-0.15-0.19-0.24
			c3.15-2.81,6.59-5.33,10.43-7.13c6.25-3.03,13.14-4.17,19.9-5.46c3.21-0.66,6.46-1.38,9.45-2.76c2.58-1.25,5-2.84,7.13-4.78
			c0.21-0.22,0.79-0.76,1.34-1.34c3.62-0.03,7.22-0.88,10.57-2.23c6.49-2.37,11.88-6.98,16.1-12.38c2.81-3.55,5.52-7.19,7.96-11.01
			c3.61-5.76,6.44-11.97,9.11-18.21c1.85-4.16,3.42-8.44,5.02-12.7c1.62-4.29,3.22-8.59,4.55-12.98c1.04-3.26,1.94-6.92,2.76-10.32
			c1.62-6.64,2.92-13.5,2.49-20.36c-0.19-2.28-0.6-4.63-1.89-6.57c-1.23-1.85-3.32-3.34-5.6-3.37c-1.23,0.03-2.7,0.38-3.54,1.33
			c-0.31-0.84-0.75-1.64-1.35-2.35c-1.33-1.52-3.6-2-5.43-1.17c-0.23,0.07-0.69,0.34-1.1,0.68c-0.54-1.32-1.46-2.39-2.98-2.76
			c-2.21-0.44-4.35,0.71-5.66,2.45c0.31-1.98,0.62-3.97,0.92-5.95c0.64-5.48,3.26-15.25-3.07-18.21c-3.72-1.34-6.84,1.51-8.18,4.79
			c-0.69,1.54-1.19,3.15-1.58,4.79c-4.48-11.79-14.8-20.27-25.73-25.95c-16.98-8.91-35.8-10.47-54.56-7.93
			c-5.5,0.66-10.99,1.61-16.54,1.6c-3.52-0.02-7-0.54-10.48-0.98c-12.79-1.96-26.24-0.81-38,4.84c-5.41,2.57-10.3,6.22-14.28,10.7
			c-4.43,4.83-7.04,11.27-9.17,17.42c-5.65,16.82-10.71,23.3-24.21,34.74c-6.46,5.67-13.7,10.63-18.99,17.49
			c-9.07,12.02-14.3,28.19-9.85,43.01c1.72,5.42,4.47,10.6,8.34,14.79c4.47,4.61,10.21,7.67,15.4,11.37c0.92,0.64,2,1.42,3.01,2.3
			c0.19,0.23,0.37,0.46,0.56,0.7c0.86,1.08,1.76,2.13,2.69,3.15c0.36,0.41,0.63,0.95,1.1,1.24c-3.15,2.42-6.38,4.74-9.7,6.94
			c-7.49,4.94-15.05,9.89-23.29,13.5c-2.49-4.28-5.79-9.28-11.15-9.84c-2.05-0.17-4.12,0.73-5.5,2.24
			c-1.32,1.53-1.84,3.63-1.68,5.62c0.31,3.43,2.22,6.43,4.22,9.14c-4.62,3.17-10.16,5.55-13.33,10.37
			c-1.68,2.47-1.53,6.06,1.44,7.43c2.01,0.89,4.3,0.56,6.35,0c-2.16,2.48-3.47,6.25-0.37,8.57c2.91,2.11,6.81,1.15,9.8-0.31
			c-1.07,1.68-1.75,3.8-1.07,5.76c0.83,2.37,3.16,4,5.62,4.25c7.24,0.71,15.8-6.24,21.47-10.34c7.26-5.63,14.51-11.32,21.02-17.82
			c5.5-5.52,10.76-11.29,15.77-17.27c0.08,0.1,0.15,0.18,0.2,0.25c0.47,0.58,0.97,1.22,1.45,1.87c3.52,4.96,6.98,10.13,11.85,13.87
			c3.66,2.79,7.82,5.32,12.5,5.75c0.2,0.04,0.4,0.05,0.6,0.04c-2.63,8.08-4.9,16.28-6.92,24.54c-2.12-1.46-6.3-1.97-8.31-1.92
			c-9.33,0.33-18.22,5.94-24.46,12.6c-2.83,3.05-5.33,6.41-7.47,9.98c-4.16,7.12-6.73,15.03-9.34,22.81
			c-2.08,6.27-3.66,12.76-4.86,19.27c-0.37,1.98-0.71,3.96-1.03,5.94c-0.13,1.3-0.88,4.33-0.54,6.03c-1.26,0.1-2.51,0.29-3.72,0.63
			c-2.07,1.04-1.82,4.25-2.04,6.25c-0.17,3.17-0.32,6.33-0.52,9.5c-0.12,1.98-0.15,3.98-0.3,5.96c-0.43,0.86-2.63,1.17-3.54,1.43
			c-14.73,2.56-25.07,9-32.17,22.41c-1.63,2.95-2.76,6.16-3.44,9.46c-0.49,2.53-1.62,6.61,0.45,8.64c3.06,2.64,7.88,2.77,11.87,3.14
			c0.33,0.21,0.76,0.39,1.3,0.55c0.91,0.28,1.85,0.41,2.79,0.54c2.83,0.43,5.68,0.79,8.51,1.19c8.04,1.12,16.04,2.73,24.18,2.99
			c0.31,0.02,0.61,0.02,0.92,0.02c0.68,0.2,1.42,0.32,2.05,0.39c1.94,0.25,3.91,0.37,5.86,0.53c5.87,0.41,11.76,0.75,17.65,0.82
			c6.57-0.08,13.08-0.02,19.67,0.17c2.81,0.07,5.63,0.15,8.44,0.02c0.81-0.08,1.69,0.06,2.43-0.36c1.5-0.96,2.32-3.98,2.96-5.62
			c1.29-3.78,2.52-7.59,3.47-11.48c0.07-0.28,0.13-0.56,0.19-0.84c0.2,4.4,0.51,8.8,0.97,13.19c0.1,0.95,0.19,1.9,0.35,2.85
			c0.1,1.43,0.97,1.8,2.29,1.78c3.99-0.14,7.99-0.09,11.96-0.54c1.14-0.14,2.29-0.26,3.39-0.57c0.83-0.21,1.28-1.01,1.48-1.79
			c0.51-1.96,0.4-4.02,0.42-6.03c0-0.17-0.01-0.34-0.01-0.51c0.31-1.44,0.57-2.89,0.79-4.36c0.86-5.51,1.53-11.05,2.35-16.56
			c0.77-5.53,1.91-11,2.65-16.53c0.42-3.68,0.5-7.4,0.98-11.07c0.32-2.34,0.58-4.97,1.04-7.38c0.29-1.51,0.66-3.51-1.54-3.36
			c0.09-0.71,0.15-1.43,0.24-2.14c0.15-1.17,0.34-2.34,0.54-3.51c0.39,1.65,0.76,3.3,1.08,4.97c1.55,7.35,2.86,14.73,3.84,22.18
			c0.53,3.09,0.85,6.01,1.53,9.14c0.31,1.4,0.64,2.79,0.94,4.19c0.29,1.2,0.56,2.64,0.88,4.15c0.07,2.59,0.57,5.12,2.03,7.34
			c0.47,0.74,1.03,1.44,1.68,2.04c1.14,1.29,2.63,2.13,4.6,2.23c2.48,0.26,4.95-0.27,7.38-0.69c4.8-0.93,9.54-2.19,14.24-3.55
			c1.87-0.51,3.71-1.16,5.52-1.85c0.59-0.2,1.16-0.45,1.71-0.73c-0.56,4.67-1.06,9.36-1.49,14.03c-0.26,2.69-0.47,5.39-0.47,8.1
			c-0.02,1.09-0.1,2.32,1.25,2.56c4.11,0.21,8.12,1.1,12.27,1.36c1.14,0.14,1.84-0.88,2.23-1.81c0.4-0.89,0.74-1.8,1.06-2.72
			c0.63-1.79,1.17-3.6,1.72-5.41c0.83-2.72,1.66-5.45,2.38-8.21c0.2,1.16,0.41,2.33,0.62,3.49c0.56,2.99,1.13,5.98,1.75,8.96
			c0.23,1.07,0.49,2.12,0.77,3.18c0.17,0.56,0.28,1.29,0.88,1.55c0.02,0.01,0.04,0.02,0.06,0.02c0.03,0.06,0.07,0.12,0.11,0.18
			c0.46,0.49,1.2,0.4,1.82,0.48c6.93,0.31,13.86,0.49,20.78,0.83c12.87,0.82,25.73,1.81,38.61,2.51c1.99,0.11,3.46-0.45,3.33-2.7
			c0-3.42-1.59-6.62-3.44-9.41c-1.81-2.76-4.12-5.16-6.68-7.25c-6.64-5.58-15.01-9.47-23.78-9.62c-0.47-0.01-0.95,0.01-1.42,0.05
			c-0.18-0.95-0.33-1.93-0.53-2.9c-0.81-3.99-1.64-7.99-2.51-11.98c9.01,0.06,18.01-2.53,25.74-7.13
			c8.2-5.02,14.69-12.47,19.2-20.92c2.91-5.02,6.07-10.16,10.8-13.67c3.64-2.58,7.92-3.72,12.18-4.88
			c-0.04,0.82-0.05,1.64-0.06,2.46c0.02,9.4,0.1,18.91,2.05,28.15c1.12,5.56,2.63,11.06,4.64,16.37c1.93,5.39,4.6,10.51,8.07,15.08
			c5.01,7.05,12.33,12.13,20.98,13.36c4.24,0.76,8.59,0.11,12.65-1.18c15.28-4.72,23.1-23.4,29.11-36.91
			c4.96-10.54,8.59-21.64,11.14-33c2.03-8.47,3.54-17.06,4.48-25.71C438.93,349.71,439.76,342.89,440.05,336.02z M392.06,193.83
			c8.14,1.16,16.26,2.45,24.44,3.3c0.38,0.04,0.76,0.09,1.15,0.13c-0.09,0.14-0.17,0.27-0.26,0.4c-0.47,0.75-0.87,1.54-1.29,2.32
			c-6.45,11.48-7.34,21.72-6.18,34.57c0.65,7.31,0.5,14.81-1.71,21.87c-0.94,3.05-2.3,5.96-3.87,8.74c-1.52,2.66-3.26,5.2-5.41,7.39
			c-3.95,3.95-8.51,7.26-13.19,10.29c-5.2,3.26-10.57,6.34-15.14,10.49c-0.85,0.8-1.73,1.57-2.47,2.48
			c-1.15,1.45-2.1,3.04-3.06,4.62c-2.17,3.64-3.82,7.58-5.17,11.59c-2.42,7.26-3.44,14.93-6.37,22.03
			c-2.66,6.25-6.5,12.12-11.67,16.57c-4.93,4.4-10.8,7.6-16.88,10.1c-9.11,3.75-19.39,6.41-25.84,14.39
			c-3.14,3.6-5.77,7.61-8.3,11.65c-0.02,0.04-0.04,0.07-0.06,0.11c-1.02,1.19-2.05,2.36-3.14,3.49c-3.43,3.29-7.54,5.84-11.85,7.81
			c-1.41,0.61-2.9,1.18-4.4,1.59c-0.34,0.12-0.87,0.19-1.32,0.35c-1.54-11.05-3.78-22.02-6.52-32.83
			c-2.9-10.54-5.65-21.12-8.7-31.61c0.21-0.04,0.41-0.12,0.61-0.19c1.31-0.33,2.38-0.75,3.81-1.08c2.97-0.82,5.95-1.61,8.85-2.65
			c13.16-4.5,24.78-11.99,30.54-25.12c3.3-7.54,5.17-15.57,8.07-23.28c3.12-8.19,8.37-15.71,14.97-21.56
			c6.09-5.38,13.54-8.86,20.12-13.57c2.49-1.79,4.85-3.77,7.03-5.94c3.26-3.4,5.84-7.54,7.31-12.03c1.95-6.08,2.25-12.45,3.82-18.63
			c1.55-5.64,3.45-11.38,7.01-16.1c1.09-1.53,2.48-2.8,3.71-4.19c0.01-0.01,0.02-0.03,0.03-0.05c2.19,0.25,4.39,0.52,6.68,0.76
			C382.33,192.48,387.21,193.03,392.06,193.83z M313.88,102.62c-4.55,1.96-11.72,4.41-16.61,3.16c-2.75-1.03-5.13-3.93-4.61-6.98
			c0.13-0.63,0.33-1.26,0.66-1.81c0.79,0.13,1.57,0.2,2.34,0.21c1.92,0.07,3.84-0.09,5.74-0.38c-0.11,0.05-0.23,0.1-0.34,0.15
			c-1.17,0.46-2.27,1.06-3.41,1.59c-0.39,0.18-0.59,0.63-0.42,1.04c0.17,0.39,0.65,0.6,1.04,0.42c0.49-0.22,0.97-0.44,1.47-0.64
			c1.17-0.49,2.3-1.07,3.43-1.63c1.49-0.75,2.96-1.53,4.46-2.25c1.86-0.51,3.69-1.14,5.45-1.93c1.01-0.47,2.05-0.94,3-1.54
			c-0.14,0.61-0.26,1.23-0.35,1.86c-0.37,2.44-0.3,5.3,0.92,7.49C315.73,101.79,314.82,102.23,313.88,102.62z M316.86,89.39
			c-0.74-0.08-1.56,0.76-2.24,1.02c-1.97,0.99-4.05,1.73-6.16,2.32c-3.09,0.81-6.24,1.36-9.42,1.65
			c-5.06,0.45-11.56-0.56-13.72-5.83c-0.87-2.43-0.22-5.25,1.34-7.26c1.27-1.46,3.02-2.43,4.82-3.09c0.01,0,0.02-0.01,0.03-0.01
			c0.51,0.03,1.01,0.05,1.52,0.07c4.85,0.16,9.69,0.25,14.55,0.28c-0.16,0.05-0.32,0.11-0.47,0.17c-4.45,1.61-8.93,3.21-13.12,5.43
			c-0.5,0.26-1.14,0.58-1.68,0.85c-0.45,0.2-0.69,0.75-0.48,1.2c0.19,0.44,0.76,0.7,1.2,0.49c0.87-0.43,1.75-0.85,2.63-1.26
			c4.23-1.95,8.52-3.78,12.79-5.66c0.93-0.41,1.87-0.81,2.8-1.23c3.15-0.03,6.3-0.12,9.45-0.24c0.97-0.03,1.95-0.05,2.92-0.18
			c0,0.01-0.01,0.01-0.02,0.02C320.87,81.54,318.34,85.28,316.86,89.39z M353.72,184.41c3.75-8.91,7.33-17.91,10.47-27.06
			c2.93-8.18,5.29-16.57,6.75-25.14c1.51-8.59,2.11-17.77-1.45-25.94c-3.67-8.84-11.52-16.49-20.93-18.81
			c-1.42-0.34-2.86-0.61-4.32-0.77c0.41-0.3,0.83-0.59,1.26-0.87c1.43-0.91,2.92-1.72,4.45-2.44c1.11-0.52,2.34-1.08,3.59-1.29
			c1.09-0.1,2.05-0.44,1.98-1.73c-0.09-0.78-0.83-1.38-1.62-1.28c-1.21,0.16-2.41,0.39-3.59,0.68c-2.19,0.59-4.16,1.78-6.06,2.98
			c-1.94,1.26-3.75,2.73-5.43,4.32c-3.58,3.39-6.35,7.53-9.82,11.02c-4.8,5.11-11.49,5.62-10.88-3.09
			c0.45-5.55,3.25-10.52,6.38-15.04c1.33-1.91,2.82-3.71,4.53-5.28c0.5-0.48,0.09-1.04-0.53-0.86c-0.56,0.19-1.04,0.54-1.5,0.92
			c-0.02,0-0.05,0-0.07,0c-0.9,0.13-1.79,0.28-2.69,0.43c-1.32-0.31-3.59-0.01-4.6-0.05c-5.51,0.19-11.02,0.3-16.53,0.18
			c-6.89-0.21-14.02-0.04-20.75-1.86c-7.29-2.15-6.67-6.5-0.77-9.99c4.6-2.31,9.9-2.62,14.93-3.29c20.95-1.93,42.29-1.97,62.92,2.58
			c6.26,1.35,12.22,3.82,17.9,6.76c5.22,2.69,10.22,5.87,14.52,9.89c4.96,4.63,8.65,10.46,11.47,16.59
			c1.35,2.97,2.57,6.01,3.42,9.16c0.69,2.62,1.09,5.3,1.41,7.99c1.53,12.18-0.23,24.6-3.44,36.39c-2.7,9.32-6.62,18.23-11.01,26.87
			c-1.25,2.51-2.57,4.98-4,7.38c-4.94-0.81-9.93-0.81-14.95-0.65c-5.35,0.21-10.72,0.33-16.01,1.14c-1.83,0.29-3.66,0.61-5.45,1.06
			C353.44,185.01,353.59,184.71,353.72,184.41z M249.99,317.99c1.09-0.26,2.19-0.52,3.27-0.83c9.72-2.6,18.75-7.99,25.49-15.48
			c4.2-4.67,6.44-10.59,8.22-16.52c2.29-6.61,4.57-13.32,8.22-19.32c2.1-3.4,4.66-6.48,7.34-9.44c1.1-1.21,2.22-2.39,3.4-3.52
			c0.72-0.47,1.44-0.94,2.17-1.39c2.89-1.85,5.83-3.63,8.88-5.21c7.88-4.17,15.76-7.79,17.93-17.32c0.25-1.25,0.28-2.52,0.28-3.78
			c0-3.7,0.17-7.4,0.8-11.05c0.84-5.42,3.05-10.48,5.67-15.26c0.84-1.53,1.71-3.06,2.58-4.58c1.13-1.88,2.14-3.91,3.69-5.48
			c6.08,0.35,12.17,1.5,18.28,2c0.94,0.08,1.88,0.17,2.8,0.27c-1.3,0.85-2.4,2.02-3.43,3.17c-3.01,3.41-4.79,7.63-6.32,11.85
			c-1.05,2.81-1.86,5.69-2.45,8.63c-1.26,5.87-1.64,12.03-4.19,17.54c-1.22,2.5-2.7,4.88-4.51,7c-5.58,6.06-13.07,9.79-19.93,14.14
			c-9.93,6.01-17.96,14.84-22.8,25.48c-2.05,4.49-3.36,9.24-4.88,13.92c-3.59,10.57-5.5,18.29-14.34,25.97
			c-5.43,4.76-12.04,7.92-18.83,10.27c-3.56,1.21-7.25,2.01-10.82,3.2c-0.73,0.24-1.5,0.4-2.11,0.88c-0.08,0.04-0.16,0.09-0.23,0.13
			c-0.06-0.2-0.12-0.41-0.18-0.61c-1.51-4.85-3.09-9.67-4.73-14.47C249.5,318.14,249.76,318.08,249.99,317.99z M323.47,158.66
			c0.46-3.79,0.84-7.59,0.78-11.42c-0.03-1.85-0.03-3.85-0.43-5.7c0.03-0.03,0.06-0.06,0.09-0.09c0.81-0.94,2.19-1.18,3.37-0.98
			c0.84,0.16,1.57,0.65,2.23,1.18c1.28,1.04,1.97,2.61,2.29,4.19c0.65,3.47,0.43,7.03,0.04,10.52c-0.54,4.4-1.47,8.79-2.6,13.14
			c-1.4,6.12-3.09,12.19-5.24,18.09c-5.14,14.56-10.76,29.32-20.32,41.63c-3.31,4.38-6.56,8.75-11.17,11.89
			c-3.85,2.59-8.22,4.71-12.9,5.11c-4.5,0.34-9.14-0.75-13.02-3.05c-2.2-1.41-4.13-3.15-5.86-5.11c-4.17-4.6-7.57-10-10.73-15.48
			c0.41-0.46,0.4-1.4,0.52-1.99c0.27-1.8,0.46-3.61,0.63-5.42c0.25-2.85,0.49-5.72,0.56-8.58c0,0.01,0,0.02,0.01,0.03
			c0.96,3.87,2.04,7.74,3.88,11.3c1.82,3.58,4.14,7.37,7.99,9c6.43,2.79,12.43-0.44,16.22-5.8c3.71-5.16,5.29-11.44,6.75-17.53
			c1.34-5.84,2.86-11.65,3.88-17.56c0.47-3.03,1.65-10.56,0.32-13.69c0.18-0.36,0.15-0.82-0.24-1.17c-1.98-1.74-3.59-3.41-3.62-6.22
			c-0.1-2.42,1.39-4.52,2.99-6.2c3.48-3.4,8.31-4.92,13-5.76c2.51-0.46,6.44,0.04,6.56,3.26c-0.13,2.09-1.69,3.9-3.04,5.39
			c-1.7,1.69-3.85,2.92-6.04,3.87c-1.64,0.63-3.33,1.13-4.9,1.95c-0.43,0.24-1.1,0.44-1.09,1.02c0.05,0.52,0.61,0.59,1,0.42
			c1.94-0.68,3.95-1.12,5.91-1.74c0.63-0.22,1.25-0.47,1.86-0.74c-0.02,0.02-0.05,0.04-0.07,0.06c-1.22,1.13,0.67,2.9,1.84,3.14
			c1.94,0.36,3.4-0.11,4.54-1.06c0.03,0.07,0.07,0.15,0.11,0.21c1.14,1.46,3.05,2.11,4.86,2.1c1.9-0.02,3.39-0.46,4.56-1.21
			c0.33,0.73,1.19,1.28,1.92,1.53c2.5,0.94,5.37-0.22,6.92-2.3c1.03-1.3,1.57-2.91,1.94-4.51c0.75-3.18,1.15-6.44,1.59-9.67
			c0.22-1.58,0.36-3.16,0.52-4.75c0.08-0.23,0.01-0.5-0.25-0.59c-0.24-0.08-0.47,0.07-0.53,0.29c-0.23,0.61-0.38,1.25-0.54,1.89
			c-0.59,2.31-1.09,4.64-1.57,6.97c-0.8,3.21-1.19,8.4-4.24,10.22c-1.11,0.66-2.6,0.6-3.67-0.13c-0.14-0.16-0.27-0.32-0.43-0.44
			C322.55,165.77,323.12,162.16,323.47,158.66z M311.18,159.26c-0.35,1.42-0.67,2.63-0.88,3.51c-0.61,2.19-2.25,5.46-5.01,4.28
			c-0.48-0.46-1.05-0.98-1.68-0.87c0.51-0.24,1-0.5,1.49-0.78C307.26,164.17,309.89,161.86,311.18,159.26z M316.22,141.83
			c0.01-1.1-0.07-2.37-0.36-3.54c0.13-0.1,0.28-0.19,0.42-0.27c1.31-0.83,3.12-0.62,4.21,0.48c1.44,1.64,1.57,3.99,1.66,6.08
			c0.07,4.51-0.39,9-0.93,13.46c-0.3,2.22-0.42,4.52-1.25,6.63c-1.1,3.33-5.38,4.73-8.2,2.61c-0.25-0.22-0.55-0.39-0.86-0.46
			c1.59-2.56,2.24-6.28,2.89-8.89C314.96,152.63,316.2,147.28,316.22,141.83z M307.73,138.87c0.63-1.09,1.56-2.06,2.79-2.43
			c0.94-0.3,2.09-0.23,2.69,0.65c2.1,2.79,0.39,11.95-1.23,18.88c-0.01-0.29-0.04-0.57-0.1-0.86c-0.74-3.35-3.99-4.76-7.14-4.77
			c0.21-1.01,0.38-2.04,0.54-3.06c0.09-0.65,0.19-1.3,0.28-1.95C306.11,143.13,306.71,140.91,307.73,138.87z M296.97,125.7
			c0.7-3.48,1.94-12.8,7.13-11.27c4.6,2.25,2.49,10.78,2.03,14.91c-0.99,6.35-2.03,12.69-3.02,19.04c-0.14,0.71-0.25,1.42-0.32,2.13
			c-3.04,0.43-6.12,1.15-8.92,2.43c0.08-0.5,0.13-0.98,0.19-1.24c0.2-1.32,0.37-2.63,0.53-3.95
			C295.47,140.4,295.7,133.02,296.97,125.7z M102.84,243.84c-0.23-0.18-0.45-0.35-0.68-0.53c-0.52-0.49-1.07-0.95-1.62-1.39
			c-3.25-2.56-6.74-4.79-10.13-7.15c-3.7-2.49-7.1-5.48-9.47-9.3c-3.32-5.27-5.53-11.3-5.87-17.55c-0.63-10.63,3.1-21.11,9.02-29.84
			c3.01-4.45,6.92-8.16,11-11.61c4.3-3.73,8.72-7.33,12.93-11.17c10.08-9.15,15.02-16.28,19.55-29.16c2.38-6.5,4.45-13.32,8.9-18.76
			c11.23-13.85,30.76-18.3,47.84-16.03c4.3,0.52,8.56,1.31,12.89,1.49c4.51,0.16,9.01-0.38,13.48-0.94
			c24.02-3.65,45.31-1.95,66.02,11.9c3.55,2.46,6.9,5.27,9.77,8.51c1.54,1.82,2.93,3.76,4.23,5.75c1.49,2.24,2.59,4.69,3.65,7.15
			c-0.17,0.98-0.31,1.96-0.44,2.94c-0.4,3.74-0.75,7.5-0.91,11.26c-0.08,3.51-0.41,7.02-0.59,10.52c-0.05,0.86-0.09,1.72-0.09,2.59
			c0.03,0.27-0.01,0.75,0.01,1.19c-0.98,0.54-1.92,1.17-2.8,1.89c-5.66,4.57-7.19,12.04-1.08,16.56c-0.04,0.13-0.05,0.27-0.04,0.41
			c0.13,0.74,0.38,1.47,0.33,2.24c0.08,5.61-0.77,10.93-1.94,16.49c-1.21,5.63-2.5,11.25-4.16,16.77
			c-1.7,5.48-3.89,11.21-8.58,14.83c-3.82,2.99-9.03,2.82-12.5-0.65c-4.92-5.14-6.89-12.22-8.86-18.88
			c-0.06-0.22-0.12-0.43-0.18-0.65c-0.15-0.83-0.32-1.65-0.48-2.46c-0.36-1.82-0.73-3.64-1.05-5.46c0.09-1.65,0.1-3.3,0.03-4.96
			c-0.08-1.82-0.27-3.63-0.56-5.42c-0.1-0.59-0.2-1.19-0.32-1.78c0,0,0-0.01,0-0.01c-0.18-1.08-0.38-2.16-0.58-3.25
			c-0.7-3.71-1.57-7.36-3.23-10.8c-3.22-7.3-8.87-13.4-15.67-17.51c-0.69-0.45-1.39-0.87-2.1-1.28c-0.72-0.53-1.46-1.04-2.21-1.53
			c-3.59-2.35-7.47-4.22-11.52-5.62c-3.99-1.38-8.17-2.24-12.37-2.59c-4.41-0.37-8.87-0.19-13.23,0.56
			c-4.3,0.74-8.53,1.99-12.52,3.77c-2.05,0.92-4.06,1.94-5.97,3.12c-0.96,0.59-1.91,1.21-2.84,1.85c-0.91,0.63-1.79,1.3-2.66,1.98
			c-1.74,1.38-3.4,2.88-4.95,4.46c-1.54,1.57-2.99,3.23-4.31,4.99c-0.68,0.91-1.36,1.83-1.98,2.79c-0.6,0.91-1.17,1.84-1.72,2.78
			c-1.11,1.89-2.07,3.87-2.94,5.88c-0.87,2.02-1.58,4.1-2.19,6.21c-0.6,2.06-1.05,4.17-1.37,6.29c-0.21,1.4-0.37,2.8-0.47,4.21
			c-0.01,0.06-0.01,0.12-0.01,0.18c0,0.01,0,0.02,0,0.03c-0.2,2.9-0.16,5.81,0.13,8.7c0.11,1.07,0.24,2.15,0.42,3.21
			c0.05,0.28,0.09,0.55,0.14,0.83c0.02,0.14,0.05,0.28,0.08,0.41c0.04,0.19,0.06,0.38,0.11,0.57c0.01,0.05,0.02,0.1,0.03,0.15
			c0.11,0.56,0.23,1.12,0.36,1.68c0.24,1.04,0.51,2.06,0.81,3.08c0.01,0.04,0.03,0.08,0.04,0.13c-7.32,8.8-14.76,17.51-23.15,25.33
			c-5.2,5.03-10.57,9.9-16.19,14.46c-0.61-0.44-1.24-0.87-1.84-1.32C105.14,245.49,104,244.71,102.84,243.84z M118.52,270.24
			c-9.14,10.76-19.05,20.52-30.47,28.96c-3.8,3-7.74,5.84-11.89,8.35c-2.1,1.24-4.28,2.4-6.63,3.08c-2.17,0.64-5.63,0.85-6.37-1.86
			c-0.12-1.59,0.96-2.94,1.79-4.2c1.01-1.36,2.15-2.61,3.28-3.85c0.5-0.6,1.17-1.14,1.33-1.94c0.15-0.74-0.32-1.56-1.06-1.77
			c-1.11-0.34-2.07,0.62-3.01,1.05c-2.22,1.24-4.41,2.56-6.74,3.59c-1.59,0.62-3.41,1.21-5.09,0.58c-1.88-0.69-0.64-2.77,0.14-3.89
			c1.93-2.54,4.43-4.59,6.87-6.62c0.83-0.62,2.02-1.1,2.29-2.2c0.26-1.12-1.08-2.15-2.09-1.57c-0.49,0.28-0.91,0.65-1.41,0.92
			c-2.04,1.22-4.14,2.36-6.33,3.31c-4.45,1.98-10.58,2.24-5.2-3.72c2.19-2.17,4.84-3.8,7.39-5.5c0.96-0.63,1.92-1.25,2.85-1.92
			c1.56-0.99,2.56-2.57,0.96-4.09c-1.75-2.62-3.7-5.59-3.37-8.87c0.24-2.37,2.39-4.08,4.73-3.41c3.09,0.93,5.27,3.61,7.03,6.19
			c1.87,2.9,2.39,4.28,5.98,2.53c13.85-6.57,26.73-15.14,38.61-24.79c11.39-9.67,22.15-20.17,31.4-31.93
			c1.62-2.01,3.22-4.03,4.79-6.08c0.01-0.01,0.01-0.01,0.02-0.02c0.24-0.31,0.47-0.62,0.71-0.93c0.35-0.46,0.7-0.91,1.04-1.37v0
			c2.19-2.9,4.32-5.85,6.37-8.85c0.18-0.43-0.13-0.94-0.62-0.9c-0.3,0.02-0.52,0.2-0.74,0.39c-0.2,0.18-0.4,0.37-0.59,0.57
			c-0.11-0.59-0.2-1.18-0.28-1.77c-0.41-3.13-0.55-6.3-0.3-9.44c0.58-7.13,2.57-14.15,5.71-20.59c4.46-8.7,11.56-15.98,19.97-20.93
			c3.06-1.7,6.38-2.99,9.82-3.66c0.45-0.09,0.9-0.17,1.35-0.24c0.19-0.03,0.37-0.05,0.56-0.08c1.06-0.14,2.13-0.24,3.2-0.32
			c1.19-0.07,2.38-0.12,3.57-0.1c1.12,0.01,2.23,0.05,3.35,0.13c2.2,0.17,4.38,0.47,6.54,0.9c1.16,0.24,2.31,0.52,3.45,0.83
			c1.17,0.32,2.32,0.69,3.47,1.09c2.16,0.78,4.26,1.68,6.31,2.71c2.04,1.06,4.01,2.24,5.9,3.54c0.38,0.27,0.76,0.54,1.13,0.82
			c1.11,1,2.17,2.05,3.25,3.09c2.2,2.25,4.35,4.56,6.14,7.16c2.47,3.65,4.59,7.61,6.63,11.55c0.18,0.36,0.36,0.72,0.53,1.08
			c0.02,0.08,0.04,0.16,0.07,0.24c0.2,0.5,0.38,1.02,0.55,1.53l0,0.01c0.01,0.04,0.03,0.09,0.04,0.13c0.61,1.89,1.13,3.93,1.54,5.99
			c0.43,2.3,0.7,4.62,0.85,6.96c0,0.02,0,0.03,0,0.05l0,0.02c0,0.03,0,0.07,0.01,0.1c0.12,2.07,0.11,4.2-0.02,6.32
			c-0.16,2.09-0.46,4.17-0.87,6.25c-0.47,2.23-1.09,4.41-1.83,6.56c-0.72,2-1.56,3.95-2.5,5.86c-0.02,0.03-0.03,0.06-0.05,0.1
			c-0.03,0.06-0.06,0.12-0.09,0.18c-1.02,1.96-2.15,3.85-3.4,5.68c-1.24,1.78-2.59,3.47-4.03,5.08c-1.54,1.69-3.18,3.27-4.92,4.76
			c-1.59,1.32-3.24,2.55-4.97,3.69c-0.03,0.02-0.22,0.14-0.41,0.26c-1.62,1.04-3.34,1.97-5.09,2.83c-2,0.95-4.05,1.77-6.15,2.47
			c-1.88,0.6-3.78,1.1-5.71,1.51c-0.11-0.05-0.24-0.06-0.39-0.04c-2.6,0.21-5.2-0.14-7.76-0.61c-2.34-0.42-4.69-0.9-6.96-1.63
			c-11.89-3.9-26.6-13.86-32.53-25.08c-0.46-0.87-0.85-1.81-1.17-2.77c0.31-0.8,0.59-1.62,0.96-2.4c0.34-0.73,0.02-1.62-0.71-1.96
			c-0.35-0.16-0.75-0.18-1.11-0.06c-0.56,0.17-0.83,0.69-1.07,1.18c-0.55,0.93-1.18,1.82-1.66,2.79c-0.75,1.45-1.51,2.89-2.27,4.33
			c-0.2,0.38-0.4,0.75-0.59,1.12c-0.27,0.51-0.55,1.03-0.82,1.54c-0.41,0.77-0.82,1.53-1.24,2.3c-3.78,7.09-7.78,14.09-11.88,21.03
			C132.83,251.71,126.33,261.5,118.52,270.24z M131.22,391.31c-0.09,1.76-0.2,3.52-0.28,5.29c-0.52-0.02-1.04-0.02-1.55-0.03
			c-1.83-0.04-3.66-0.14-5.49-0.18c-3.33,0.04-6.65-0.12-9.98-0.05c0.01-0.29,0.02-0.59,0.05-0.88c0.16-1.38,0.18-2.77,0.22-4.16
			c0.14-4.54,0.62-8.91,1.3-13.43c1.39-8.86,3.85-17.61,7.38-25.87c4.07-9.13,9.57-17.67,16.49-24.89c0.61-0.6,1.22-1.2,1.83-1.82
			c-1.59,7.23-3.02,14.5-4.34,21.77C134.38,361.74,131.89,376.43,131.22,391.31z M90.88,384.85c1.34-8.84,3.12-17.67,5.9-26.19
			c2.73-8.16,5.42-16.48,10.06-23.78c3.82-5.93,8.76-11.23,14.86-14.85c3.4-2.05,7.13-3.63,11.06-4.26c2.95-0.51,6-0.35,8.89,0.51
			c0.5,0.17,1,0.37,1.47,0.61c-0.1,0.42-0.2,0.83-0.3,1.25c-0.24,0.19-0.48,0.39-0.73,0.57c-0.68,0.54-1.34,1.08-2.03,1.61
			c-1.12,0.87-2.24,1.74-3.32,2.67c-8.37,6.84-14.13,16.34-18.04,26.31c-1.6,4.38-2.63,8.95-3.78,13.46
			c-0.63,2.88-1.16,5.78-1.73,8.68c-0.24,1.4-0.51,2.8-0.71,4.21c-0.19,1.44-0.22,2.9-0.35,4.35c-0.28,2.72-0.55,5.44-0.75,8.17
			c-0.06,0.48-0.08,1.09-0.07,1.67c-2.62,0.04-5.24,0.19-7.86,0.14c-3.17-0.04-6.34-0.18-9.52-0.1c-1.22,0.02-2.46,0-3.69,0.01
			c0-0.05,0-0.11-0.01-0.17C90.44,388.11,90.65,386.48,90.88,384.85z M57.86,445.78c-1.56,2.33-3.08,4.72-4.06,7.36
			c-0.22,0.54-0.4,1.05-0.53,1.51c-0.46-0.04-0.92-0.09-1.37-0.14c0.22-0.42,0.36-0.94,0.48-1.37c0.86-2.68,2.01-5.36,3.37-7.86
			c4.56-8.24,11.97-14.63,20.34-18.83c4.98-2.57,10.36-4.19,15.84-5.31c2.53-0.65,7.56-1.13,9.39-2.74c1-0.92,1.2-2.34,1.33-3.63
			c0.18-1.67,0.2-3.35,0.26-5.03c0.08-1.72,0.28-3.43,0.44-5.14c0.16-1.67,0.3-3.34,0.58-5c0.13-0.64,0.26-1.28,0.62-1.84
			c0.17-0.27,0.42-0.43,0.7-0.57c0.64-0.31,1.29-0.63,1.8-1.13c0.68-0.64,0.59-1.59,0.39-2.42c-0.08-0.5-0.21-0.98-0.31-1.47
			c0.22-0.02,0.43-0.04,0.65-0.07c1.33-0.16,2.68-0.26,3.99-0.53c-0.03,0.71-0.05,1.43-0.06,2.15c-0.02,0.81,0.03,1.61,0.05,2.42
			c-0.01,0.09-0.01,0.19-0.01,0.28c-0.41,0.02-0.82,0.04-1.23,0.05c-0.69-0.01-1.31,0.33-1.69,0.91c-0.35,0.52-0.47,1.18-0.61,1.78
			c-0.39,1.89-0.71,3.79-0.97,5.7c-0.35,2.77-0.85,5.52-1.21,8.29c-0.22,1.9-0.45,3.79-0.65,5.69c-0.09,0.84-0.16,1.68-0.19,2.52
			c-0.63,0.05-1.26,0.13-1.89,0.21c-4.9,0.62-9.67,2-14.39,3.4c-6.5,1.91-12.93,4.3-18.68,7.94
			C65.17,436.19,61.3,440.9,57.86,445.78z M129.08,407.18c-1.81,0.66-2.05,2.92-2.5,4.55c-0.83,3.4-1.27,6.87-1.65,10.35
			c-0.36,3.37-0.71,6.75-1.22,10.11c-0.23,1.45-0.56,2.88-0.85,4.31c-1.45,0.92-4.14,1.39-5.36,1.81c-3.38,0.95-6.7,2.13-9.83,3.73
			c-5.45,2.61-10.32,6.47-13.91,11.35c-1.47,1.91-2.76,3.97-3.74,6.17c-0.08,0.16-0.14,0.31-0.18,0.46c-0.81-0.01-1.62,0-2.42-0.01
			c0.03-0.08,0.06-0.17,0.08-0.25c0.27-0.73,0.58-1.46,0.91-2.17c0.83-1.75,1.8-3.44,2.84-5.07c2.35-3.71,5.58-7.09,9.25-9.57
			c3.87-2.62,8.1-4.73,12.67-5.76c1.99-0.46,4.08-0.58,6-1.31c1.48-0.56,1.78-1.29,1.88-2.8c0.27-3.9,0.36-7.93,0.58-11.88
			c0.37-4.1,0.83-8.44,3.06-12.02c0.74-1.13,1.63-2.15,2.63-3.05c0.39-0.39,0.97-0.67,1.12-1.24c0.12-0.71-0.06-1.44-0.13-2.14
			c-0.2-1.38-0.38-2.8-0.7-4.16c0.75-0.04,1.49-0.09,2.24-0.17c0.34-0.04,0.68-0.08,1.01-0.12c-0.1,2.91-0.1,5.82,0.22,8.71
			C130.4,407.01,129.72,407.05,129.08,407.18z M165.33,407.92c-7.72-0.33-15.45-0.65-23.17-0.67c-1.31-0.02-2.63-0.04-3.94-0.04
			c-1.38-0.04-2.76-0.08-4.14-0.09c-0.06-0.64-0.18-1.29-0.09-1.9c0.03-1.59,0.02-3.19,0.05-4.78c0.24-9.63,1.03-19.25,2.28-28.81
			c4.46-33.5,11.19-66.81,22.56-98.69c0.41-1.25,0.78-2.51,1.12-3.78c0.08-0.69-0.91-0.86-1.15-0.31c-0.94,1.53-1.58,3.22-2.26,4.87
			c-1.94,4.84-3.73,9.74-5.38,14.68c-0.09-0.05-0.18-0.09-0.28-0.12c-0.58-0.15-1.19-0.09-1.78-0.21c-0.75-0.19-1.48-0.44-2.21-0.71
			c-2.2-0.81-4.27-1.93-6.18-3.29c-4.43-3.09-8.13-7.09-11.58-11.26c-0.79-0.89-2.72-3.52-4.38-4.96c0.99-1.2,1.97-2.4,2.94-3.61
			c4.46-5.74,8.43-11.85,12.11-18.12c4.81-8.11,9.48-16.17,13.96-24.43c2.03,3.11,4.36,6.01,7.01,8.62
			c3.09,3.06,6.57,5.74,10.32,7.94c3.82,2.25,7.92,4.03,12.18,5.26c4.15,1.2,8.44,1.89,12.76,2.07c0.69,0.03,1.38,0.04,2.06,0.04
			c3.78,0,7.56-0.42,11.26-1.22c4.31-0.94,8.47-2.45,12.41-4.42c1.91-0.95,3.76-2.04,5.54-3.22c1.78-1.19,3.48-2.48,5.12-3.86
			c1.92-1.63,3.73-3.4,5.38-5.3c2.61-3,4.92-6.28,6.8-9.79c0.48,1.05,1.06,2.05,1.57,3.07c2.16,3.94,3.95,8.11,6.53,11.82
			c5.02,7.2,11.46,15.18,20.82,16.05c0.08,0.01,0.16,0.01,0.23,0.02c-0.8,0.6-1.6,1.2-2.45,1.73c-1.69,1.06-3.44,2.02-5.3,2.75
			c-3.86,1.46-7.96,2.11-12,2.84c-11.75,1.87-20.43,4.94-29.29,13.21c-3.43,3.12-6.32,6.73-9.43,10.16
			c-5.22,5.81-11.49,10.71-18.84,13.53c-3.91,1.53-8.06,2.34-12.21,2.81c-1.41,0.17-2.83,0.28-4.26,0.3c0-0.37-0.15-0.75-0.18-1.11
			c-0.38-2.44-0.98-5.11-1.49-7.58c-0.81-3.82-1.28-7.71-2.31-11.48c-0.16-0.55-0.29-1.12-0.55-1.63c-0.07-0.12-0.14-0.24-0.27-0.3
			c-0.09-0.04-0.19-0.05-0.28-0.03c-0.14-0.07-0.3-0.07-0.44,0c-0.46,0.31-0.47,0.95-0.64,1.44c-0.35,1.39-0.58,2.82-0.79,4.24
			c-1.32,9.89-2.17,19.85-2.59,29.82c-0.9,28.34-4.27,56.57-4.54,84.94c-0.09,4.39-0.31,8.79,0.13,13.17c0,0.13,0.03,0.24,0.06,0.35
			C165.86,407.94,165.6,407.93,165.33,407.92z M231.69,402.75c-3.29,0.03-6.57,0.72-9.67,1.8c-1.95,0.72-3.9,1.53-5.71,2.57
			c2.44-8.98,4.18-18.16,5.44-27.38c1.19-8.92,1.6-18.21,0.55-27.26c0.12-0.08,0.22-0.18,0.32-0.3c1.24-1.24,2.3-2.64,3.42-3.99
			c0.62-0.7,1.26-1.39,1.88-2.09c1.23,10.45,2.71,20.88,3.7,31.36c0.84,8.44,1.4,16.89,1.89,25.36
			C232.78,402.76,232.02,402.78,231.69,402.75z M227.16,344.53c-1.63,1.25-3.18,2.58-4.69,3.96c-0.21,0.2-0.42,0.4-0.63,0.6
			c-0.93-5.83-2.5-11.53-4.91-16.94c-0.3-0.65-0.62-1.3-0.95-1.94c0.26-0.19,0.5-0.45,0.72-0.69c0.3-0.27,0.61-0.55,0.91-0.82
			c0.83-0.72,1.75-1.37,2.69-1.99c0.91-0.6,1.85-1.15,2.8-1.68c0.47-0.28,0.96-0.52,1.43-0.8c1.21,6.6,2.26,13.22,3.14,19.9
			C227.49,344.28,227.32,344.4,227.16,344.53z M222.05,323.48c-2.58,0.96-4.99,2.35-7.02,4.22c-0.1,0.08-0.21,0.17-0.31,0.27
			c-5.92-9.93-15.73-17.61-26.75-21.01c-4.65-1.22-9.71-2.26-14.49-1.49c0.1-2.62,0.21-5.24,0.35-7.86
			c0.28,0.08,0.58,0.11,0.87,0.14c1.45,0.17,2.89,0.36,4.35,0.46c7.36,0.33,14.8-1.21,21.51-4.23c4.88-2.24,9.34-5.35,13.24-9.03
			c0,0,0.01-0.01,0.01-0.01c0.32,0.94,0.66,1.87,0.99,2.81c3.27,9.59,6.12,19.31,8.31,29.22c0.39,1.91,0.76,3.83,1.12,5.74
			C223.49,322.93,222.77,323.21,222.05,323.48z M174.7,441.62c-0.23-4.64-0.52-9.29-0.86-13.92c-0.26-3.05-0.73-6.08-1.08-9.12
			c-0.24-1.91-0.52-3.82-0.93-5.7c-0.32-1.19-0.58-3.32-1.65-4.21c-0.08-0.42-0.77-0.56-1.19-0.56c-0.19-0.01-0.37-0.02-0.56-0.03
			c0.14-0.32,0.12-0.69,0.12-1.04c0.02-0.56,0.07-1.11,0.09-1.67c0.05-1.75,0.06-3.49,0.13-5.24c0.03-1,0.07-1.99,0.11-2.99
			c0.65,0.11,1.31,0.17,1.97,0.23c-0.33,1.32-0.4,3.71-0.51,4.17c-0.1,1.06-0.19,2.13-0.3,3.19c-0.07,0.56-0.24,1.19,0.11,1.69
			c0.45,0.61,1.28,0.75,1.78,1.31c0.58,0.57,0.72,1.4,0.84,2.17c0.14,0.94,0.26,1.89,0.4,2.83c0.64,3.71,1.35,7.34,1.7,11.11
			c0.45,3.61,0.65,7.22,0.54,10.86c0.03,0.29,0.17,0.5,0.35,0.63C175.4,437.43,175.05,439.52,174.7,441.62z M180.94,385.99
			c-0.44,2.56-0.87,5.11-1.33,7.66c-0.06,0.49-0.27,1.17-0.36,1.8c-2.9,0.03-5.8,0.21-8.7,0.21c-0.32,0.03-0.99-0.02-1.62,0
			c0.28-6.5,0.66-12.99,0.94-19.49c0.67-19.93,2.73-39.78,3.34-59.71c0.03-2.83,0.1-5.67,0.19-8.5c0.04,0.02,0.09,0.04,0.13,0.05
			c7.4-0.07,14.86,1.5,21.27,5.33c13.78,8.01,21.27,20.33,23.34,36.03c2.33,14.17,0.83,28.49-1.87,42.5
			c-1.2,6.83-2.49,13.67-4.47,20.33c-2.11,6.91-4.6,13.72-7.52,20.33c-0.51,1.34-2.9,5.91-3.82,9.01c-0.08,0.08-0.14,0.17-0.19,0.28
			c-0.21,0.41-0.5,0.76-0.79,1.11c-1.93,0.44-3.61-0.99-4.66-2.52c-0.73-1.35-1.17-2.93-1.55-4.35c-0.22-1.85-0.05-3.78,0.09-5.62
			c0.22-2.74,0.57-5.35,1-8.1c1-7.06,2.04-14.12,3.18-21.16c1.45-9.54,2.88-19.09,3.43-28.73c0.26-3.8,0.37-7.64-0.46-11.38
			c-0.38-1.86-0.83-3.78-1.92-5.37c-0.61-0.9-1.67-1.94-2.8-2.23c0.75-0.78,1.55-1.52,2.4-2.2c0.87-0.66,1.75-1.29,2.69-1.85
			c0.58-0.33,1.18-0.63,1.78-0.91c0.17-0.08,0.32-0.17,0.43-0.33c0.15-0.22,0.12-0.51-0.05-0.71c-0.68-0.77-3.02,0.54-3.83,0.95
			C186.36,355.91,183.53,372.54,180.94,385.99z M183.99,390.34c-0.2-0.69-0.42-1.47-0.69-2.18c-0.09-0.28-0.27-0.49-0.48-0.57
			c1.17-6.23,2.41-12.47,4.33-18.52c1.05-3.17,2.25-6.26,3.85-9.21c1.13-1.88,2.4-3.7,3.84-5.36c0.85,0.03,1.58,0.75,2.1,1.38
			c1.67,2.29,1.94,5.64,2.27,8.4c0.22,2.75-0.06,5.5-0.27,8.24c-0.92,12.87-3.29,25.56-5.34,38.27c-0.73,5.36-1.69,10.69-2.39,16.06
			c-0.12-0.58-0.24-1.15-0.36-1.73C188.59,413.53,187.04,401.77,183.99,390.34z M232.26,408.09c-1.94,0.71-1.74,3.82-1.99,5.55
			c-0.57,5.94-0.61,11.92-1.46,17.82c-0.2,1.52-0.4,3.04-0.59,4.57c-0.26-0.02-0.52,0.02-0.76,0.13c-0.5,0.2-1.05,0.37-1.57,0.58
			c-1.33,0.55-2.66,1.08-4.02,1.54c-4.64,1.51-9.34,2.85-14.07,4.04c-0.23,0.05-0.46,0.1-0.68,0.15c0.36-1.32,0.55-2.68,0.81-4.02
			c0.53-3.06,1.06-6.12,1.72-9.15c0.4-1.79,0.78-3.59,1.14-5.39c1.65-4.2,3.1-8.48,4.39-12.81c2.83-1.64,5.75-3.21,8.93-4.09
			c2.51-0.66,5.04-1.41,7.65-1.54c0.57-0.07,1.29,0.11,1.88,0.04c0.04,0.78,0.09,1.57,0.13,2.35
			C233.27,407.91,232.75,407.94,232.26,408.09z M265.14,407.28c-3.77,0.27-7.54,0.5-11.32,0.48c-4.28,0.04-8.6-0.1-12.9-0.18
			c-1.73-0.03-3.47-0.06-5.2,0.06c0-0.39-0.07-0.82-0.06-1.19c-0.52-10.27-1.26-20.53-2.19-30.76c-2.31-21.14-4.08-42.44-8.86-63.2
			c-1.94-7.78-4.27-15.46-6.98-23.01c-0.37-1-0.77-1.99-1.19-2.98c0.06-0.04,0.12-0.09,0.18-0.14c0,0,0,0,0,0
			c2.28-1.51,4.48-3.21,6.4-5.2c1.5-1.66,2.91-3.42,4.2-5.24c0.41-0.61,0.81-1.23,1.18-1.86c0.88,1.56,1.72,3.21,2.51,4.79
			c4.58,8.73,8.19,17.9,11.5,27.17c4.77,13.59,9.51,27.19,13.09,41.16c2.24,8.53,4.74,17,6.77,25.59
			c1.93,8.48,3.59,17.02,4.82,25.62c0.43,2.9,0.65,5.82,1.12,8.71C267.18,407.16,266.16,407.24,265.14,407.28z M329.01,382.33
			c-3.12,2.92-5.59,6.46-7.83,10.08c-3.03,5.18-5.88,10.55-10.19,14.81c-5.98,6.35-13.77,10.71-22.26,12.84
			c-2.01,0.47-4.04,0.86-6.09,1.08c-2.06,0.22-4.13,0.18-6.19,0.2c-0.22-1-0.44-2-0.67-2.99c-0.63-2.84-1.26-5.67-2.05-8.47
			c-0.13-0.44-0.26-0.88-0.41-1.31c-0.13-0.32-0.22-0.71-0.47-0.95c0-0.02-0.01-0.04-0.02-0.06c-0.09-0.27-0.38-0.36-0.64-0.4
			c-0.45-0.05-0.91-0.08-1.36-0.1c-0.04-0.91-0.12-1.82-0.22-2.73c1.32-0.1,2.6-0.61,3.86-1.01c5.08-1.75,9.39-5.01,13.55-8.35
			c2.14-1.8,3.87-3.95,5.4-6.26c0.07-0.09,0.14-0.17,0.21-0.26c3.78-5.16,6.98-10.92,12.06-14.96c7.36-5.61,16.72-7.36,24.85-11.52
			c6.28-3.09,12.14-7.13,16.89-12.3c4.73-5.36,8.3-11.76,10.43-18.58c2.36-7.34,3.42-15.06,6.36-22.21
			c1.52-3.83,3.44-7.5,5.79-10.88c1.4-1.8,3.2-3.24,4.95-4.68c6.77-5.26,14.56-9.07,21.1-14.64c8.72-6.85,14.44-17.2,16.04-28.14
			c0.95-5.85,0.69-11.79,0.26-17.67c-0.29-4.64-0.51-9.31,0-13.94c0.54-4.55,1.62-9.04,3.3-13.3c1.09-2.77,2.47-5.42,3.53-8.2
			c0-0.01,0-0.01,0.01-0.02c3.25,0.31,6.51,0.51,9.77,0.83c2.29,0.22,4.46,0.47,6.77,0.72c0.25,0.02,0.5,0.05,0.75,0.06
			c-0.77,1.23-1.08,4.23-1.31,4.99c-0.57,2.84-1.29,5.65-2.3,8.36c-1.71,4.39-3.72,8.67-4.98,13.22
			c-2.13,6.79-1.78,13.98-1.37,20.99c0.07,2.44,0.13,4.87,0.23,7.31c0.02,0.75,0.01,1.5,0,2.25c0.01,0.57-0.2,1.38-0.03,1.95
			c-1.54-0.01-3.05,0.54-4.4,1.85c-1.27,1.23-1.64,3.06-1.84,4.75c-0.12,0.58-0.14,1.16-0.08,1.73c-0.46-0.21-0.94-0.37-1.44-0.42
			c-0.75-0.07-1.52,0.1-2.24,0.31c-2.83,0.79-4.84,3.63-4.93,6.53c0,0.12-0.01,0.23-0.01,0.35c-0.9-0.12-1.87,0.11-2.7,0.39
			c-2.78,1.02-4.73,3.7-5.5,6.5c-1.5,5.62,0.59,11.77,2.59,17.39c-0.48,0.45-1,0.88-1.54,1.27c-1.74,1.14-3.61,2.08-5.44,3.08
			c-4.36,2.21-8.46,5-11.71,8.68c-3.75,4.13-6.93,9.03-8.11,14.54c-1.13,5.24-1.26,10.61-1.54,15.94c-0.15,3.7-0.31,7.45-1.43,11.02
			c-0.73,2.41-1.94,4.63-3.28,6.75c-0.98,1.6-2.24,3-3.63,4.26c-3.75,3.36-7.87,6.45-12.64,8.19c-3.31,1.38-6.69,2.56-10.15,3.5
			C340.48,376.32,333.81,377.73,329.01,382.33z M381.66,400.75c-0.96,3.31-1.87,6.69-3.56,9.72c-0.52,0.84-1.1,1.67-1.88,2.3
			c-0.64,0.53-0.74,0.21-1.1-0.19c-2.49-3.81-3.26-8.45-4.11-12.85c-1.13-6.65-1.87-13.36-2.36-20.09
			c-0.24-3.35-0.37-6.71-0.78-10.04c-0.06-0.47-0.12-0.94-0.19-1.41c2.3-1.73,4.46-3.67,6.25-5.93c2.34-3.2,4.22-6.8,5.21-10.66
			c1.3-5.08,1.31-10.37,1.7-15.57c0.35-5.18,0.71-10.52,2.9-15.3c1.92-4.23,4.93-7.91,8.35-11.1c0.33-0.31,0.67-0.62,1.02-0.91
			c0.38,2.21,1.29,4.26,2.17,6.3c0.79,1.92,1.43,3.92,1.71,5.98c0.89,8.68-1.66,17.23-3.28,25.68c-2.76,13.54-5.38,27.12-8.69,40.54
			C383.96,391.75,382.9,396.27,381.66,400.75z M437.2,327.68c-0.02,0.12-0.02,0.24-0.01,0.36c-0.1,1.32-0.13,2.65-0.11,3.98
			c-0.04,6.68-0.84,13.33-1.58,19.96c-1.63,15.69-5.08,31.39-9.94,46.45c-3.05,8.96-7.11,17.55-10.91,26.22
			c-3.18,6.67-6.96,13.15-12.18,18.44c-3.05,3.13-6.88,5.45-11.1,6.59c-4.47,1.29-8.53,1.43-13.03,0.19
			c-4.98-1.26-9.55-3.86-13.16-7.51c-7.04-7.43-11.1-17.13-13.84-26.87c-2.03-7.25-3.38-14.7-3.84-22.22c-0.22-2.99-0.34-6-0.47-9
			c0.12-0.03,0.24-0.09,0.35-0.15c1.11-0.45,2.18-1,3.25-1.55c2.91-1.48,5.71-3.15,8.3-5.14c2.65-1.98,5.26-4.13,7.37-6.69
			c0,0.06,0,0.12,0,0.19c-0.03,3.36-0.09,6.73,0.1,10.09c0.52,7.58,2.04,29.71,7.65,34.39c-0.83,0.86-1.64,1.73-2.47,2.59
			c-0.7,0.83-2.35,2.23-1.74,3.4c0.27,0.33,0.59,0.51,0.94,0.57c0.45,0.32,1.11,0.3,1.51-0.11c0.1-0.11,0.21-0.22,0.32-0.33
			c1.83-0.99,3.81-3.3,4.52-4.25c1.14-1.45,2.24-2.97,3-4.66c0.95-1.43,1.62-3.05,2.23-4.66c0.82-2.31,1.53-4.65,2.18-7.01
			c2.72-10.07,5.13-20.31,7.39-30.51c1.38-6.74,2.74-13.49,4.2-20.22c1.37-6.67,2.94-13.31,3.75-20.08
			c0.81-5.68,0.6-11.36-2.04-16.57c-0.82-1.72-1.7-3.43-2.16-5.3c-0.09-0.4-0.21-0.84-0.43-1.2c2.47-1.77,5.14-3.26,7.72-4.86
			c1.34-0.86,2.78-1.8,3.81-3.04c0.25,0.72,0.5,1.43,0.73,2.12c1.79,5.04,2.73,10.34,4.45,15.41c0.67,1.67,3.03,0.68,2.37-0.98
			c-1.17-5.13-2.64-10.24-4.25-15.26c-1.12-3.35-2.38-6.66-3.28-10.09c-1.15-4.07-1.96-9.13,0.87-12.73
			c1.05-1.29,2.51-2.32,4.17-2.61c0.03,0,0.05-0.01,0.08-0.01c0.17,1.17,0.49,2.31,0.87,3.43c0.82,2.53,1.77,5.02,2.64,7.53
			c1.63,5.2,3.56,10.35,4.34,15.77c0.23,1.6,0.26,3.21,0.27,4.82c0.05,0.38-0.07,0.94,0.29,1.19c0.91,0.33,1.16-2.53,1.26-3.25
			c0.28-2.72,0.01-5.46-0.5-8.13c-0.71-3.58-1.66-7.12-2.79-10.6c-1.24-3.9-3.21-7.6-3.93-11.64c-0.04-0.33-0.07-0.66-0.07-0.99
			c0.12-0.47,0.27-0.93,0.49-1.36c1.01-2.02,3.44-3.25,5.5-1.96c0.43,0.23,0.84,0.5,1.23,0.79c0.23,0.26,0.46,0.53,0.69,0.79
			c0.88,1.56,1.92,3.02,2.91,4.51c1.96,3,3.82,6.08,5.36,9.32c1.9,3.96,3.08,8.13,4.48,12.3c0.05,0.27,0.24,0.53,0.57,0.46
			c0.25-0.06,0.38-0.35,0.31-0.57c-0.1-1.02-0.25-2.03-0.44-3.03c-1.53-8.36-5.49-16.03-10.07-23.11c-0.22-0.38-0.46-0.77-0.69-1.16
			c-0.25-0.6-0.48-1.21-0.68-1.83c-0.75-2.03-0.92-4.72,0.36-6.57c0.69-0.54,1.55-0.87,2.43-0.78c2.42,0.37,4.29,2.18,6.1,3.69
			c3.24,3,6.16,6.36,8.59,10.04c2.98,4.67,5.37,9.73,7.15,14.98c1.03,3.39,1.4,7.04,0.72,10.54c-0.43,1.85-1.14,3.61-2,5.29
			c-1.65,3.31-4.11,6.09-6.09,9.19c-1.21,1.94-2.06,4.07-2.65,6.28c-0.03,0.1-0.06,0.19-0.1,0.29c-0.67,2.04-1.05,4.15-1.23,6.28
			C437.23,327.56,437.21,327.62,437.2,327.68z"/>
		<path d="M319.35,295.71c4.9,0.32,8.91-2.68,12.21-5.99c1.94-1.89,3.69-3.96,5.36-6.09c1.71-2.13,3.14-4.48,4.22-6.99
			c0.77-1.47,1.3-3.09,1.36-4.76c0.15-3.05-1.6-6.47-4.74-7.2c-4.82-1.03-9.33,2.21-11.89,6.06c-0.34,0.54-0.85,1.05-0.9,1.71
			c0,0.24,0.09,0.47,0.19,0.68c0.76,1.76,1.62,3.46,2.44,5.2c-1.46-0.55-2.95-1.01-4.47-1.38c-1.13-0.27-2.33-0.75-3.3,0.16
			c-2.61,2.03-6.46,6.56-7.09,9.82C311.7,291.42,314.82,295.37,319.35,295.71z"/>
		<path d="M361.41,281.44c-2.67-0.87-5.4,0.52-7.52,2.08c-1.95,1.42-3.69,3.13-5.13,5.06c-0.4,0.45-0.46,1.06-0.16,1.58
			c0.25,0.54,0.53,1.07,0.83,1.59c0.91,1.61,2.11,3.05,2.98,4.69c-2.56-0.21-4.96-1.27-7.5-1.67c-0.68-0.17-1.39,0.03-1.94,0.45
			c-2.36,1.88-4.52,5.47-4.98,8.48c-0.6,4.43,2.12,7.88,6.52,8.51c4.66,0.61,8.8-2.42,12.13-5.33c3.81-3.36,7.2-7.38,8.78-12.27
			c0.98-2.34,1.56-4.97,1.09-7.5C365.96,284.52,363.91,282.26,361.41,281.44z"/>
		<path d="M346.86,316.57c-3.04-3.5-7.96-3.99-12.27-4.67c-8-1.28-11.23-5.57-17.46-9.79c-3.36-2.29-7.93-2.68-11.52-0.68
			c-5.36,2.68-7.36,8.43-5.89,14.08c0.86,3.99,2.85,7.78,5.84,10.58c1.22,1.08,2.53,2.03,3.85,2.98c0.96,0.65,1.91,1.34,2.99,1.78
			c0.15,0.06,0.33,0.13,0.51,0.17c-0.42,1.14-1.14,2.16-1.9,3.1c-2.33,2.99-5.58,5.57-6.55,9.37c-0.72,3.69,1.04,7.69,4,9.93
			c1.45,1.05,3.18,1.68,4.95,1.91c0.46,0.05,0.93,0.08,1.39,0.08c3.59,0,7.06-1.6,9.94-3.69c2.77-2.05,4.77-4.93,6.49-7.88
			c1.24-2.23,2.22-4.61,2.8-7.1c0-0.01,0-0.01,0-0.02c0.59-0.06,1.17-0.11,1.76-0.19c2.45-0.37,4.77-1.32,6.9-2.57
			c2.78-1.54,5.42-3.85,6.2-7.06c0.39-1.57,0.39-3.22,0.33-4.83C349.04,320.06,348.11,318.14,346.86,316.57z M330.55,341.38
			c-1.71,3.43-3.98,6.77-7.11,9.06c-2.89,1.97-6.44,3.46-9.99,2.92c-1.68-0.33-3.31-1.09-4.52-2.31c-2.33-2.4-3.47-6.36-1.37-9.26
			c2.14-3.31,5.52-5.72,7.15-9.37c1.06-2.42,0.94-5.3,0.01-7.74c-0.65-1.61-1.8-2.93-2.92-4.23c-0.26-0.29-0.56-0.41-0.85-0.41
			c-0.83,0-1.57,0.99-0.89,1.85c0.64,0.73,1.25,1.49,1.83,2.27c1.24,1.66,1.59,3.84,1.29,5.86c-1.06-0.93-2.19-1.82-3.24-2.76
			c-2.34-1.99-4.47-4.26-5.92-6.99c-0.28-0.54-0.53-1.1-0.77-1.66c0.85-0.42,1.67-0.89,2.56-1.22c1.6-0.57,3.29-0.82,4.98-0.78
			c3.48,0.13,6.7,1.73,9.15,4.21c0.61,0.62,1.07,1.35,1.44,2.12c0.91,3.64,0.51,7.5-0.53,11.07c-0.34,1.2-0.77,2.37-1.15,3.55
			c-0.24,0.59-0.46,1.56,0.43,1.66c0.75,0.01,1.28-1.44,1.68-2.01c1.44-2.48,3.58-7.77,3.86-11.76c0.93,0.14,1.83,0.55,2.62,1.04
			c2.16,1.35,3.4,3.69,4.1,6.11c0.16,0.69,0.21,1.38,0.19,2.06c-0.09,0.77-0.23,1.54-0.34,2.31c0,0.01,0,0.03,0,0.04
			c0,0.01,0,0.02,0,0.02c-0.01,0.01-0.02,0.01-0.03,0.02C331.8,338.53,331.16,339.99,330.55,341.38z"/>
		<path d="M318.42,340.33c-1.56-0.1-1.77,2.29-0.11,2.32C319.79,342.56,320.13,340.29,318.42,340.33z"/>
		<path d="M340.33,217.85c0.31-2.47,0.6-4.97,1.27-7.38c1.02-3.72,2.87-7.15,4.85-10.43c0.59-0.3,0.05-1.17-0.47-0.78
			c-0.41,0.28-0.71,0.73-1,1.15c-0.79,1.1-1.53,2.25-2.21,3.42c-0.68,1.19-1.34,2.4-1.86,3.67c-1.38,3.27-2.04,6.7-1.98,10.26
			C338.92,218.64,340.23,218.71,340.33,217.85z"/>
		<path d="M342.84,215.81c-0.25,1.34-0.48,2.69-0.67,4.04c-0.07,0.52,0.32,1.01,0.84,1.08c0.52,0.07,1.01-0.31,1.08-0.84
			c0.36-2.4,0.77-4.79,1.16-7.19c0.73-3.56,2.4-6.83,4.03-10.05c0.22-0.45,0.46-0.89,0.61-1.37c0.03-0.11,0.04-0.2,0.01-0.31
			c-0.16-0.37-0.6-0.16-0.77,0.09c-1.52,1.98-2.74,4.18-3.79,6.44C344.07,210.26,343.27,213,342.84,215.81z"/>
		<path d="M261.18,326.81c0.82-0.04,1.62-0.23,2.42-0.41c1.1-0.24,2.18-0.57,3.24-0.96c2.14-0.76,4.25-1.59,6.17-2.81
			c0.77-0.47,0.11-1.61-0.68-1.19c-0.55,0.31-1.12,0.57-1.69,0.82c-2.7,1.21-5.41,2.42-8.26,3.25c-0.54,0.18-1.08,0.33-1.61,0.51
			c-0.31,0.06-0.58,0.4-0.28,0.66C260.68,326.81,260.95,326.82,261.18,326.81z"/>
		<path d="M277.02,320.71c0.72,0,1.32-0.61,1.32-1.33c0-0.72-0.61-1.32-1.33-1.32c-0.72,0-1.32,0.61-1.32,1.33
			C275.69,320.11,276.3,320.71,277.02,320.71z"/>
		<path d="M395.85,439.13c-0.21,0.18-0.43,0.34-0.66,0.5c-0.88,0.58-1.83,1.31-2.82,1.98c-2.18,1.44-4.72,2.35-7.33,2.57
			c-0.9,0.05-1.79,0.06-2.68,0.01c-0.55,0.04-1.67-0.38-1.98,0.19c-0.52,1.15,1.95,1.47,2.69,1.66c4.12,0.78,8.44-0.51,11.71-3.05
			c0.76-0.54,1.44-1.17,2.03-1.9c0.56-0.5,1.01-1.19,0.4-1.86C396.86,438.88,396.24,438.81,395.85,439.13z"/>
		<path d="M380.88,440.13c0.77,0.26,1.58,0.38,2.39,0.46c3.38,0.38,6.78-0.86,9.42-2.93c1.05-0.8-0.03-2.44-1.18-1.79
			c-3.34,1.99-5.81,2.89-9.73,2.96c-0.56,0.04-2,0.01-1.53,0.94C380.4,439.97,380.66,440.06,380.88,440.13z"/>
	</g>
</g>
</svg>
